<?xml version="1.0" encoding="UTF-8"?>
<svg id="Layer_1" data-name="Layer 1" xmlns="http://www.w3.org/2000/svg" xmlns:xlink="http://www.w3.org/1999/xlink" viewBox="0 0 824.88 680.31">
  <defs>
    <style>
      .cls-1 {
        fill: url(#linear-gradient);
      }

      .cls-2 {
        fill: #747474;
      }
    </style>
    <linearGradient id="linear-gradient" x1="412.44" y1="402.64" x2="412.44" y2="700.23" gradientUnits="userSpaceOnUse">
      <stop offset="0" stop-color="#fff" stop-opacity=".8"/>
      <stop offset=".05" stop-color="#fff" stop-opacity=".84"/>
      <stop offset=".19" stop-color="#fff" stop-opacity=".91"/>
      <stop offset=".36" stop-color="#fff" stop-opacity=".96"/>
      <stop offset=".57" stop-color="#fff" stop-opacity=".99"/>
      <stop offset="1" stop-color="#fff"/>
    </linearGradient>
  </defs>
  <path class="cls-2" d="m196.21,287.89c12.9,0,30.48-3.3,30.48-25.5v-51.59h7.99v51.29c0,31.8-25.5,32.75-38.4,32.75-.07,0-.07-6.96-.07-6.96Zm51.59-30.78c0-17.51,13.85-31.8,30.78-31.8s30.78,14.22,30.78,31.8-14.22,31.14-30.78,31.14c-16.85-.07-30.78-14.29-30.78-31.14m68.81,0c0-21.47-16.85-38.69-38.03-38.69s-38.4,17.51-38.4,38.69,17.51,38.03,38.4,38.03,38.03-17.22,38.03-38.03m3.3,15.83c.66,13.19,12.24,22.13,30.12,22.13,16.85,0,30.78-9.6,30.78-21.84,0-5.94-3.66-12.24-9.97-15.9-4.62-2.64-6.96-3.3-18.83-5.94-14.87-3-21.47-6.3-21.47-13.19,0-7.25,9.31-13.19,18.83-13.19,10.26,0,19.2,5.28,19.86,13.56h8.94c.37-11.21-11.87-20.15-27.48-20.15-16.56,0-28.43,8.28-28.43,20.15,0,4.98,2.64,9.6,6.96,13.19,3.96,3,8.65,4.62,18.83,6.3,15.53,3,23.81,7.62,23.81,15.53s-10.62,14.87-21.47,14.87c-11.87,0-20.15-5.64-21.47-15.53h-9.01Zm133.65-20.15c-1.98-15.53-14.87-27.48-30.48-27.48s-28.43,11.87-30.48,27.48h60.97Zm7.91,4.32v2.64h-68.81c1.32,15.53,14.87,28.43,30.78,28.43,13.19,0,25.13-8.94,29.09-21.18h7.99c-4.32,16.19-19.49,28.43-37,28.43-20.81,0-38.4-17.22-38.4-38.03-.37-21.47,16.85-39.06,38.03-39.06,21.18.07,38.32,17.22,38.32,38.76m14.58-.37c0-17.88,13.56-31.8,31.14-31.8s31.14,13.85,31.14,31.8-13.63,31.8-31.14,31.8-31.14-13.92-31.14-31.8m-7.62,48.95h8.65v-24.47s9.31,13.56,30.12,13.56c25.5,0,39.35-19.49,39.35-38.03s-13.56-38.4-39.42-38.4-38.69,19.86-38.69,38.4v48.95h0Zm84.71-94.89v82.65h8.28v-41.03c0-14.22,12.24-25.5,25.79-25.5s22.86,11.21,22.86,25.5v41.33h8.28v-43.01c0-19.2-12.53-32.46-31.14-32.46-20.81,0-26.16,15.9-26.16,15.9v-23.45l-7.91.07h0Zm-330.77,90.28v51.29c0,16.19-7.99,23.81-25.5,23.81h-.66v14.22h.66c27.77,0,41.33-12.53,41.33-38.03v-51.29h-15.83Zm57.52,74.74c13.19,0,23.81-11.21,23.81-24.84s-10.62-25.13-23.81-25.13-23.81,11.28-23.81,25.13,10.62,24.84,23.81,24.84m0-64.48c21.47,0,39.06,17.88,39.06,39.72s-17.59,39.35-38.69,39.35-39.06-17.51-39.06-39.35c-.37-21.84,17.22-39.72,38.69-39.72m42.35,21.54c0,6.3,3.3,11.87,8.94,15.9,4.32,3.3,6.96,3.96,21.84,7.99,10.92,3,15.53,5.94,15.53,10.62,0,5.28-7.99,8.94-15.24,8.94-8.94,0-14.51-3.96-14.87-9.6v-.66h-18.54v.66c1.03,13.56,14.22,23.52,32.75,23.52s33.71-10.92,33.71-24.84c0-11.58-8.28-18.54-27.11-23.16-14.22-3.66-19.2-5.64-19.2-9.97s6.3-6.96,12.53-6.96c5.64,0,12.24,3,12.9,7.99v.37h18.17v-.66c-.66-12.53-13.85-21.84-30.78-21.84-16.71.15-30.63,10.04-30.63,21.69m126.69,11.21c-3-10.92-12.24-18.17-22.86-18.17s-19.86,7.62-22.86,18.17h45.72Zm-23.16-32.75c21.47,0,39.06,17.88,39.06,39.72,0,2.34-.37,4.62-.66,6.59v.37h-60.89c3,10.62,12.24,17.88,22.86,17.88,8.28,0,15.9-4.32,20.15-11.58v-.37h16.56l-.37.66c-5.64,15.24-20.15,25.79-36.34,25.79-21.47,0-39.06-17.51-39.06-39.35s17.22-39.72,38.69-39.72m126.03-10.26v87.64h15.24v-41.99c0-12.53,9.6-18.83,19.2-18.83s17.51,8.28,17.51,18.83v42.35h14.87v-43.67c0-19.86-13.19-34.07-32.46-34.07-6.96,0-13.85,3-19.2,7.99v-18.17l-15.17-.07h0Zm-43.67,75.11c14.22,0,24.84-10.92,24.84-25.13s-10.62-25.13-24.84-25.13-24.84,10.92-24.84,25.13,10.62,25.13,24.84,25.13m0-64.85c26.45,0,40.67,20.52,40.67,39.72s-14.22,39.72-40.67,39.72c-8.65,0-16.85-2.34-23.52-6.96v18.83h-16.56v-51.88c-.29-19.2,13.92-39.42,40.08-39.42m117.75-83.02c4.32,0,7.99-3.66,7.99-8.28s-3.66-8.28-7.99-8.28c-4.62,0-8.28,3.66-8.28,8.28,0,4.62,3.66,8.28,8.28,8.28m0-18.54c5.28,0,9.97,4.62,9.97,9.97,0,5.64-4.32,10.26-9.97,10.26-5.28,0-9.97-4.62-9.97-10.26.07-5.35,4.32-9.97,9.97-9.97m-.66,9.6c2.34,0,2.64-1.03,2.64-1.69,0-.37,0-1.03-.66-1.32-.37-.37-1.32-.37-1.98-.37h-1.32v3.3h1.32m5.28,6.37h-2.34s-.37-.37-.37-1.32v-1.03c0-.66,0-1.03-.37-1.32-.37-.37-1.03-.66-2.34-.66h-1.32v4.32h-2.2v-11.58h3.96c1.69,0,2.34,0,3,.37,1.03.66,1.69,1.69,1.69,3s-.66,2.34-1.98,2.64c0,0,.37,0,.37.37,1.03.66,1.32,1.69,1.32,3.3,0,1.03,0,1.32.37,1.32l.22.59Z"/>
  <path class="cls-2" d="m196.28,511.53c12.9,0,38.4.95,38.4,32.75v51.29h-7.99v-51.59c0-22.2-17.59-25.5-30.48-25.5,0,0,0-6.96.07-6.96Zm51.51,37.74c0-16.85,13.92-31.07,30.78-31.14,16.56,0,30.78,14.29,30.78,31.14s-13.85,31.8-30.78,31.8-30.78-14.29-30.78-31.8m68.81,0c0-20.81-17.15-38.03-38.03-38.03s-38.4,17.51-38.4,38.03,16.93,38.69,38.4,38.69,38.03-17.22,38.03-38.69m3.3-15.83h9.01c1.32-9.89,9.6-15.53,21.47-15.53,10.84,0,21.47,6.96,21.47,14.87s-8.28,12.53-23.81,15.53c-10.19,1.69-14.87,3.3-18.83,6.3-4.32,3.59-6.96,8.21-6.96,13.19,0,11.87,11.87,20.15,28.43,20.15,15.61,0,27.84-8.94,27.48-20.15h-8.94c-.66,8.28-9.6,13.56-19.86,13.56-9.53,0-18.83-5.94-18.83-13.19s6.59-10.19,21.47-13.19c11.87-2.64,14.22-3.3,18.83-5.94,6.3-3.66,9.97-9.97,9.97-15.9,0-12.24-13.92-21.84-30.78-21.84-17.88,0-29.46,8.94-30.12,22.13h0Zm133.65,20.15h-60.97c2.05,15.61,14.95,27.48,30.48,27.48s28.5-11.94,30.48-27.48h0Zm7.91-4.32c0,21.54-17.15,38.69-38.32,38.76-21.18,0-38.4-17.59-38.03-39.06,0-20.81,17.59-38.03,38.4-38.03,17.51,0,32.68,12.24,37,28.43h-7.99c-3.96-12.24-15.9-21.18-29.09-21.18-15.9,0-29.46,12.9-30.78,28.43h68.81v2.64m14.58.37c0-17.88,13.92-31.8,31.14-31.8s31.14,13.85,31.14,31.8-13.63,31.8-31.14,31.8-31.14-13.92-31.14-31.8m-7.62-48.95v48.95c0,18.54,13.56,38.4,38.69,38.4s39.42-19.86,39.42-38.4-13.85-38.03-39.35-38.03c-20.81,0-30.12,13.56-30.12,13.56v-24.47h-8.65Zm84.71,94.89l7.91.07v-23.45s5.35,15.9,26.16,15.9c18.61,0,31.14-13.26,31.14-32.46v-43.01h-8.28v41.33c0,14.29-9.31,25.5-22.86,25.5s-25.79-11.28-25.79-25.5v-41.03h-8.28v82.65h0Zm-314.94-90.28v-51.29c0-25.5-13.56-38.03-41.33-38.03h-.66v14.22h.66c17.51,0,25.5,7.62,25.5,23.81v51.29h15.83Zm41.69-74.74c-13.19,0-23.81,11.21-23.81,24.84s10.62,25.13,23.81,25.13,23.81-11.28,23.81-25.13-10.62-24.84-23.81-24.84m0,64.48c-21.47,0-39.06-17.88-38.69-39.72,0-21.84,17.59-39.35,39.06-39.35s38.69,17.51,38.69,39.35-17.59,39.72-39.06,39.72m42.35-21.54c0,11.65,13.92,21.54,30.63,21.69,16.93,0,30.12-9.31,30.78-21.84v-.66h-18.17v.37c-.66,4.98-7.25,7.99-12.9,7.99-6.23,0-12.53-2.64-12.53-6.96s4.98-6.3,19.2-9.97c18.83-4.62,27.11-11.58,27.11-23.16,0-13.92-14.87-24.84-33.71-24.84s-31.73,9.97-32.75,23.52v.66h18.54v-.66c.37-5.64,5.94-9.6,14.87-9.6,7.25,0,15.24,3.66,15.24,8.94,0,4.69-4.62,7.62-15.53,10.62-14.87,4.03-17.51,4.69-21.84,7.99-5.64,4.03-8.94,9.6-8.94,15.9m80.97-11.21c3,10.55,12.24,18.17,22.86,18.17s19.86-7.25,22.86-18.17h-45.72Zm22.57,32.75c-21.47,0-38.69-17.88-38.69-39.72s17.59-39.35,39.06-39.35c16.19,0,30.7,10.55,36.34,25.79l.37.66h-16.56v-.37c-4.25-7.25-11.87-11.58-20.15-11.58-10.62,0-19.86,7.25-22.86,17.88h60.89v.37c.29,1.98.66,4.25.66,6.59,0,21.84-17.59,39.72-39.06,39.72m126.03,10.26l15.17-.07v-18.17c5.35,4.98,12.24,7.99,19.2,7.99,19.27,0,32.46-14.22,32.46-34.07v-43.67h-14.87v42.35c0,10.55-7.55,18.83-17.51,18.83s-19.2-6.3-19.2-18.83v-41.99h-15.24v87.64h0Zm-43.67-75.11c-14.22,0-24.84,10.92-24.84,25.13s10.62,25.13,24.84,25.13,24.84-10.92,24.84-25.13-10.62-25.13-24.84-25.13m0,64.85c-26.16,0-40.37-20.22-40.08-39.42v-51.88h16.56v18.83c6.67-4.62,14.87-6.96,23.52-6.96,26.45,0,40.67,20.52,40.67,39.72s-14.22,39.72-40.67,39.72m117.75,83.02c-4.62,0-8.28,3.66-8.28,8.28,0,4.62,3.66,8.28,8.28,8.28,4.32,0,7.99-3.66,7.99-8.28s-3.66-8.28-7.99-8.28m0,18.54c-5.64,0-9.89-4.62-9.97-9.97,0-5.64,4.69-10.26,9.97-10.26,5.64,0,9.97,4.62,9.97,10.26,0,5.35-4.69,9.97-9.97,9.97m-.66-9.53h-1.32v3.3h1.32c.66,0,1.61,0,1.98-.37.66-.29.66-.95.66-1.32,0-.66-.29-1.69-2.64-1.69m5.06-5.72c-.37,0-.37.29-.37,1.32,0,1.61-.29,2.64-1.32,3.3,0,.37-.37.37-.37.37,1.32.29,1.98,1.32,1.98,2.64s-.66,2.34-1.69,3c-.66.37-1.32.37-3,.37h-3.96v-11.58h2.2v4.32h1.32c1.32,0,1.98-.29,2.34-.66.37-.29.37-.66.37-1.32v-1.03c0-.95.37-1.32.37-1.32h2.34l-.22.59Z"/>
  <rect class="cls-1" y="402.64" width="824.88" height="297.6"/>
</svg>