<?xml version="1.0" encoding="UTF-8"?>
<svg id="Layer_1" data-name="Layer 1" xmlns="http://www.w3.org/2000/svg" xmlns:xlink="http://www.w3.org/1999/xlink" viewBox="0 0 824.88 680.31">
  <defs>
    <style>
      .cls-1 {
        fill: url(#linear-gradient);
      }

      .cls-2 {
        fill: #231f20;
        fill-rule: evenodd;
      }
    </style>
    <linearGradient id="linear-gradient" x1="412.44" y1="392.11" x2="412.44" y2="680.31" gradientUnits="userSpaceOnUse">
      <stop offset="0" stop-color="#fff" stop-opacity=".8"/>
      <stop offset=".05" stop-color="#fff" stop-opacity=".84"/>
      <stop offset=".19" stop-color="#fff" stop-opacity=".91"/>
      <stop offset=".36" stop-color="#fff" stop-opacity=".96"/>
      <stop offset=".57" stop-color="#fff" stop-opacity=".99"/>
      <stop offset="1" stop-color="#fff"/>
    </linearGradient>
  </defs>
  <path class="cls-2" d="m399.82,205.15c3.56.19,6.74,1.5,9.36,3.74,3.56,3.37,4.49,8.99,2.81,13.48-6.55,13.48-22.12,22.48-32.76,25.46-6.36,1.5-14.41,1.5-20.22-.75-2.81,1.68-5.18,7.13-8.61,4.87-4.97-3.88-.67-9.95-3.54-14.26-.59-.89-2.08-.95-2.83-2.4-3.93-8.61.94-16.85,6.36-23.4,9.05-10.09,35.01-21.34,49.42-6.74h0Zm-30.14,6.74c-5.05.94-10.76,3.14-13.85,6.74-3.09,3.6-5.05,7.11-3.18,10.86,6.55-4.87,9.73-11.61,17.03-15.73,0-.75,1.12-1.31,0-1.87h0Zm30.51,1.87c-12.92-1.12-22.65,8.61-31.82,17.97-.56,1.5-3.93,3.18-1.31,4.87,12.36,1.12,24.15-2.43,33.13-10.67,2.62-2.43,4.49-5.62,3.18-8.99-.56-1.31-1.87-2.62-3.18-3.18h0Z"/>
  <path class="cls-2" d="m512.15,269.55c5.99,14.6,11.04,37.63,0,51.67-3,3.37-8.24,6.47-11.61,3.93-12.36-9.92-17.6-24.15-25.27-36.88-1.12-.56-1.12.94-1.69,1.5-2.81,12.92,2.43,29.77-6.36,39.87-3.37.56-6.52-1.17-7.67-4.49-4.31-13.29.19-27.14,1.31-40.43,2.62-6.74,3.74-14.6,9.55-19.66,9.36,3.74,13.85,14.23,19.28,21.9,3.93,5.8,7.11,12.36,11.61,17.6,3.93-1.69,2-6.82,1.87-9.92-1.5-12.17-4.87-23.4-8.05-35.01-.19-3-1.87-8.05,1.31-9.92,8.42,3.74,11.98,12.54,15.73,19.84h0Z"/>
  <path class="cls-2" d="m455.61,265.06c0,2.81-2.25,6.32-4.12,6.74-17.97,2.81-38,1.12-54.85,6.74-.56,2.06,1.87,2.43,3.18,3,14.41,2.25,29.58,2.81,43.62,6.36,7.43,1.89,10.11,10.67,10.67,17.97.34,5.76-1.87,12.73-7.49,16.66-13.85,8.8-35.01,8.42-49.05.37-5.37-3.01-10.48-7.86-10.86-13.85.03-4.76,2.06-8.5,5.43-10.3,13.48-5.43,30.14-2.43,41.75,4.49.75,3.74-3.31,3.54-5.24,4.87-12.92,7.49-22.65-8.42-34.63-2.62-1.69,1.12-2.9,4.26-.94,5.24,14.79,6.55,31.26,1.87,45.86-2.25,1.68-.56,3.74-2.25,3.93-3.93-.56-5.99-7.3-7.3-11.61-8.99-12.73-3.18-26.77-3.18-40.43-4.49-2.62-.56-5.96-2.39-6.74-4.49-1.5-4.49-1.5-10.67,1.87-14.41,17.41-15.35,43.81-14.04,65.9-9.92,1.5.56,3.18,1.12,3.74,2.81h0Z"/>
  <path class="cls-2" d="m373.8,272.17c1.68,17.97,2.62,34.63,2.25,53.54-.37,2.43-3.18,3-5.05,3.93-3,.56-6.86-.08-8.05-1.68-4.31-6.93-2.81-16.29-3.18-24.71.56-13.29.37-27.71,4.12-40.06.72-1.79,2.81-3.37,4.49-2.25,4.49,2.25,5.24,6.74,5.43,11.23h0Z"/>
  <path class="cls-2" d="m581.78,269.55c.9,1.51,1.84,3.85,0,4.87-8.42,3.74-19.84,2.06-29.58,3.18-2.62,2.25-4.68,5.99-3.74,9.36.94.56,1.78,1.42,2.81,1.31,5.99.37,14.98-2.81,18.91,2.81.97,1.67-.12,7.91-2.81,8.05-7.3.94-19.31-.92-22.84.94-4.49,2.99-4.12,8.8-5.8,13.48,3.18,2.06,6.52-.05,10.3-.56,6.93-1.12,14.6-3.18,21.53-1.68,1.31,2.43,3.18,5.05,1.87,8.05-11.79,9.36-27.02,18.95-43.24,12.17-6.08-2.73-8.8-11.98-6.74-19.84,1.31-5.62,7.11-11.05,3.56-17.04-.56-2.62.94-4.87,3.18-5.43,6.18,0,4.87-7.67,8.05-11.23-3.56-3.93-12.54-3.74-11.61-11.61,4.31-2.25,9.55-1.5,14.41-2.25,11.04-2.25,23.4-3.56,34.63-2.25,2.25.45,5.24,4.87,7.11,7.68h0Z"/>
  <path class="cls-2" d="m314.46,226.87c17.27,14.12,39.69,38.19,36.88,65.89-3.37,21.9-26.58,38.38-46.24,43.62-19.09,5.62-43.06,5.05-62.53.56-1.31,3.56-2.62,7.86-6.74,9.36-2.62.94-5.99.37-8.05-1.31-5.8-5.43-1.12-15.91-9.55-19.28-16.47-6.93-34.26-20.59-42.68-37.44-1.12-3.37.19-6.74,2.25-9.36,12.92-10.3,29.2-14.41,45.49-17.6.94.37.56-.94,1.31-1.31.94-11.23,1.31-22.65,4.87-32.76.81-1.42,2.81-1.87,4.12-.94,10.3,7.86,5.43,22.65,9.92,33.32,19.66.94,39.31,1.87,54.85,12.92,5.24,4.3,6.52,12.53,4.87,17.22-1.65,4.7-7.11,8.05-12.17,8.42-3.37,0-9.74.33-9.36-2.25s11.45-6.79,8.05-10.3c-4.89-5.05-29.36-8.05-44.52-9.92-1.87-.37-3.59.19-3.59,2.25-.37,14.23-1.5,29.95.94,43.62.19.94,1.31,2.06,2.25,2.25,26.77,4.31,55.04,1.87,76-13.48,9.74-7.86,12.92-18.91,11.23-31.08-8.42-33.88-43.81-54.29-72.82-67.39-28.27-12.36-59.53-18.72-93.04-17.04-5.34.39-13.79,2.23-13.85,4.12s9.58,1.29,8.42,4.87c-1.15,3.57-10.95,1.45-13.85.56-2.9-.89-2.62-5.05-1.87-7.67,7.3-12.92,27.67-13.96,36.88-14.41,50.92-1.31,100.15,18.08,132.54,44.55h0Zm-91.73,50.17c-12.92.19-26.58,1.5-38.56,5.99-2.43.94-5.43,3.56-3.56,6.74,4.87,6.55,11.82,11.93,18.35,15.72,6.52,3.79,15.16,8.61,23.03,9.74,1.87-12.17,1.87-24.15,1.68-36.69-.75-.37,0-1.12-.94-1.5h0Z"/>
  <path class="cls-2" d="m609.68,260c-.56,16.29-15.72,26.4-15.72,42.68.56.56.94,1.31,1.68.94,12.17-13.29,24.15-32.2,41.93-37.81,4.68-.37,8.92,3.7,10.67,6.74,6.18,12.35,4.68,29.76-3.93,41-8.89,11.03-24.34,22.09-41.93,20.22-7.3,17.97-12.36,36.88-15.16,56.54-1.5,3.93-5.05.37-7.3-.38-15.16-11.98-2.71-43.7-1.68-47.74,1.03-4.04,5.09-13.56,8.05-21.53-7.11-12.73-2.62-28.08,3.18-39.87,4.49-7.86,10.67-15.73,17.97-21.72.94,0,1.68.19,2.25.94h0Zm30.14,20.22c-2.25-.37-3.18,2.62-5.05,3.18-8.61,9.73-17.22,19.47-21.53,31.07,5.8.75,10.67-3,15.73-5.05,8.61-5.43,14.04-14.41,13.48-24.71-.37-1.69-1.87-3-2.62-4.49h0Z"/>
  <path class="cls-2" d="m400.11,579.07h0c-14.41,14.6-40.37,3.35-49.42-6.74-5.43-6.55-10.3-14.79-6.36-23.4.75-1.45,2.24-1.52,2.83-2.4,2.87-4.31-1.43-10.38,3.54-14.26,3.43-2.26,5.8,3.18,8.61,4.87,5.8-2.25,13.85-2.25,20.22-.75,10.64,2.98,26.21,11.98,32.76,25.46,1.68,4.49.75,10.11-2.81,13.48-2.62,2.25-5.8,3.56-9.36,3.74h0Zm-30.14-6.74h0c1.12-.56,0-1.12,0-1.87-7.3-4.12-10.48-10.86-17.03-15.73-1.87,3.74.09,7.25,3.18,10.86,3.09,3.6,8.8,5.8,13.85,6.74h0Zm30.51-1.87h0c1.31-.56,2.62-1.87,3.18-3.18,1.31-3.37-.56-6.55-3.18-8.99-8.98-8.24-20.78-11.79-33.13-10.67-2.62,1.69.75,3.37,1.31,4.87,9.17,9.36,18.91,19.09,31.82,17.97h0Z"/>
  <path class="cls-2" d="m512.43,514.68c5.99-14.6,11.04-37.63,0-51.67-3-3.37-8.24-6.47-11.61-3.93-12.36,9.92-17.6,24.15-25.27,36.88-1.12.56-1.12-.94-1.69-1.5-2.81-12.92,2.43-29.77-6.36-39.87-3.37-.56-6.52,1.17-7.67,4.49-4.31,13.29.19,27.14,1.31,40.43,2.62,6.74,3.74,14.6,9.55,19.66,9.36-3.74,13.85-14.23,19.28-21.9,3.93-5.8,7.11-12.36,11.61-17.6,3.93,1.69,2,6.82,1.87,9.92-1.5,12.17-4.87,23.4-8.05,35.01-.19,3-1.87,8.05,1.31,9.92,8.42-3.74,11.98-12.54,15.73-19.84h0Z"/>
  <path class="cls-2" d="m455.89,519.17c0-2.81-2.25-6.32-4.12-6.74-17.97-2.81-38-1.12-54.85-6.74-.56-2.06,1.87-2.43,3.18-3,14.41-2.25,29.58-2.81,43.62-6.36,7.43-1.89,10.11-10.67,10.67-17.97.34-5.76-1.87-12.73-7.49-16.66-13.85-8.8-35.01-8.42-49.05-.37-5.37,3.01-10.48,7.86-10.86,13.85.03,4.76,2.06,8.5,5.43,10.3,13.48,5.43,30.14,2.43,41.75-4.49.75-3.74-3.31-3.54-5.24-4.87-12.92-7.49-22.65,8.42-34.63,2.62-1.69-1.12-2.9-4.26-.94-5.24,14.79-6.55,31.26-1.87,45.86,2.25,1.68.56,3.74,2.25,3.93,3.93-.56,5.99-7.3,7.3-11.61,8.99-12.73,3.18-26.77,3.18-40.43,4.49-2.62.56-5.96,2.39-6.74,4.49-1.5,4.49-1.5,10.67,1.87,14.41,17.41,15.35,43.81,14.04,65.9,9.92,1.5-.56,3.18-1.12,3.74-2.81h0Z"/>
  <path class="cls-2" d="m374.09,512.06c1.68-17.97,2.62-34.63,2.25-53.54-.37-2.43-3.18-3-5.05-3.93-3-.56-6.86.08-8.05,1.68-4.31,6.93-2.81,16.29-3.18,24.71.56,13.29.37,27.71,4.12,40.06.72,1.79,2.81,3.37,4.49,2.25,4.49-2.25,5.24-6.74,5.43-11.23h0Z"/>
  <path class="cls-2" d="m582.07,514.68c.9-1.51,1.84-3.85,0-4.87-8.42-3.74-19.84-2.06-29.58-3.18-2.62-2.25-4.68-5.99-3.74-9.36.94-.56,1.78-1.42,2.81-1.31,5.99-.37,14.98,2.81,18.91-2.81.97-1.67-.12-7.91-2.81-8.05-7.3-.94-19.31.92-22.84-.94-4.49-2.99-4.12-8.8-5.8-13.48,3.18-2.06,6.52.05,10.3.56,6.93,1.12,14.6,3.18,21.53,1.68,1.31-2.43,3.18-5.05,1.87-8.05-11.79-9.36-27.02-18.95-43.24-12.17-6.08,2.73-8.8,11.98-6.74,19.84,1.31,5.62,7.11,11.05,3.56,17.04-.56,2.62.94,4.87,3.18,5.43,6.18,0,4.87,7.67,8.05,11.23-3.56,3.93-12.54,3.74-11.61,11.61,4.31,2.25,9.55,1.5,14.41,2.25,11.04,2.25,23.4,3.56,34.63,2.25,2.25-.45,5.24-4.87,7.11-7.68h0Z"/>
  <path class="cls-2" d="m314.74,557.36h0c-32.39,26.47-81.62,45.87-132.54,44.55-9.2-.45-29.58-1.5-36.88-14.41-.75-2.62-1.03-6.79,1.87-7.67,2.9-.89,12.7-3.01,13.85.56,1.15,3.57-8.49,2.98-8.42,4.87s8.52,3.73,13.85,4.12c33.51,1.68,64.77-4.68,93.04-17.04,29.02-13.1,64.4-33.51,72.82-67.39,1.69-12.17-1.5-23.21-11.23-31.08-20.97-15.35-49.23-17.78-76-13.48-.94.19-2.06,1.31-2.25,2.25-2.43,13.67-1.31,29.39-.94,43.62,0,2.06,1.72,2.62,3.59,2.25,15.16-1.87,39.63-4.87,44.52-9.92,3.4-3.51-7.68-7.72-8.05-10.3s5.99-2.25,9.36-2.25c5.05.37,10.51,3.73,12.17,8.42,1.65,4.69.37,12.92-4.87,17.22-15.54,11.05-35.19,11.98-54.85,12.92-4.49,10.67.37,25.46-9.92,33.32-1.31.94-3.31.48-4.12-.94-3.56-10.11-3.93-21.53-4.87-32.76-.75-.37-.37-1.68-1.31-1.31-16.29-3.18-32.57-7.3-45.49-17.6-2.06-2.62-3.37-5.99-2.25-9.36,8.42-16.85,26.21-30.51,42.68-37.44,8.42-3.37,3.74-13.85,9.55-19.28,2.06-1.68,5.43-2.25,8.05-1.31,4.12,1.5,5.43,5.8,6.74,9.36,19.47-4.49,43.43-5.05,62.53.56,19.66,5.24,42.87,21.72,46.24,43.62,2.81,27.71-19.6,51.77-36.88,65.89h0Zm-91.73-50.17h0c.94-.37.19-1.12.94-1.5.19-12.54.19-24.52-1.68-36.69-7.86,1.12-16.51,5.94-23.03,9.74-6.52,3.79-13.48,9.17-18.35,15.72-1.87,3.18,1.12,5.8,3.56,6.74,11.98,4.49,25.65,5.8,38.56,5.99h0Z"/>
  <path class="cls-2" d="m609.96,524.22h0c-.56.75-1.31.94-2.25.94-7.3-5.99-13.48-13.85-17.97-21.72-5.8-11.79-10.3-27.14-3.18-39.87-2.96-7.97-7.02-17.49-8.05-21.53-1.03-4.04-13.48-35.76,1.68-47.74,2.25-.75,5.8-4.31,7.3-.38,2.81,19.66,7.86,38.56,15.16,56.54,17.6-1.87,33.04,9.19,41.93,20.22,8.61,11.23,10.11,28.64,3.93,41-1.75,3.04-5.99,7.11-10.67,6.74-17.78-5.62-29.76-24.52-41.93-37.81-.75-.37-1.12.37-1.68.94,0,16.29,15.16,26.4,15.72,42.68h0Zm30.14-20.22h0c.75-1.5,2.25-2.81,2.62-4.49.56-10.3-4.87-19.28-13.48-24.71-5.06-2.06-9.92-5.8-15.73-5.05,4.31,11.61,12.92,21.34,21.53,31.07,1.87.56,2.81,3.56,5.05,3.18h0Z"/>
  <rect class="cls-1" y="392.11" width="824.88" height="288.2"/>
</svg>