<?xml version="1.0" encoding="UTF-8"?>
<svg id="Layer_1" data-name="Layer 1" xmlns="http://www.w3.org/2000/svg" xmlns:xlink="http://www.w3.org/1999/xlink" viewBox="0 0 824.88 680.31">
  <defs>
    <style>
      .cls-1 {
        fill: url(#linear-gradient);
      }

      .cls-2 {
        fill: #1a365e;
      }
    </style>
    <linearGradient id="linear-gradient" x1="414.52" y1="340.16" x2="414.52" y2="567.33" gradientUnits="userSpaceOnUse">
      <stop offset="0" stop-color="#fff" stop-opacity=".8"/>
      <stop offset=".05" stop-color="#fff" stop-opacity=".84"/>
      <stop offset=".19" stop-color="#fff" stop-opacity=".91"/>
      <stop offset=".36" stop-color="#fff" stop-opacity=".96"/>
      <stop offset=".57" stop-color="#fff" stop-opacity=".99"/>
      <stop offset="1" stop-color="#fff"/>
    </linearGradient>
  </defs>
  <g>
    <path class="cls-2" d="m302.9,468.01c-29.94-1.3-40-39.13-40-39.13l-16.74.11-1.94-7.12h15.16s-.48-2.19-13.47-38.31c-5.94-16.49-14.91-34.33-29.58-39.42-14.67-5.09-13.09.48-13.09.48.6,1.35.46,2.91-.37,4.13-5.69,6.19-18.2,1.05-13.34-6.07,4.86-7.12,23.43-9.91,37-1.78,13.57,8.13,24.23,17.2,35.27,43.17,11.05,25.97,15.28,38.49,15.28,38.49h9.98s1.46,6.42,1.46,6.42h-8.89c2.11,6.55,4.83,12.89,8.13,18.93,7.28,12.36,17.84,15,22.32,15.16s4-1.78,4-1.78c.11-7.12,7.76-7.12,9.57-7.12s10.07,2.44,5.09,8c-4.96,5.5-14.55,6.67-25.83,5.83Z"/>
    <path class="cls-2" d="m297.46,378.88c14.96-.12,30.84,10.41,35.58,23.52,4.73,13.11-4,23.66-18.55,24.01-26.49.6-34.13-16.49-35.58-23.52-3.27-15.4,6.55-23.89,18.55-24.01Zm18.78,17.34c-5.34-11.05-14.53-17.11-20.47-13.59-5.94,3.52-6.4,15.3-.96,26.33,5.44,11.03,14.55,17.09,20.49,13.57,5.94-3.52,6.3-15.28.96-26.31h-.02Z"/>
    <path class="cls-2" d="m396.13,427.1h-15.03l-.85-1.78s-10.78,3.38-20.97-.37c-10.19-3.75-27.91-22.93-25.12-36.38,2.79-13.45,22.07-11.88,28.02-8.24,0,0,1.81,1.69.37-3.27-10.03-35.06-40.24-31.66-44.47-25.35,0,0,4.84,4.48-5.23,7.4-7.15,2.06-11.28-9.21-.71-13.11,0,0,28.85-14.3,55.05,13.11,0,0,7.76,6.3,15.51,30.56l13.43,37.43Zm-30.65-35.13c-7.15-8.73-14.55-11.15-16.49-5.34-1.94,5.82,2.31,17.61,9.59,26.33,7.28,8.72,14.55,11.17,16.49,5.34,1.94-5.83-2.47-17.59-9.59-26.33h0Z"/>
    <path class="cls-2" d="m526.76,425.93h9.77l-2.05-4.13h-9.11l-13.82-30.24c-1.65-4-2.06-6.92.12-7.88,6.79-3.17,13.82,13.09,13.82,13.09h6.55c-9.94-21.22-18.68-20.26-25.7-18.07-14.67,4.64-7.4,19.57-7.4,19.57l10.67,23.89h-5.21l1.69,4.11h5.11l8.89,16.61,13.95-.11-7.28-16.84Z"/>
    <path class="cls-2" d="m583.68,423.94s-8.5-21.1-10.67-23.89-8.77-15.8-15.88-16.36c-7.12-.57-4.29,5.21-3.56,6.55s6.78,11.76,9.21,15.4c3.88,5.94,2.67,21.83-10.8,21.1-14.83-.73-16.61-15.16-16.61-15.16h5.09c.85,8.72,11.42,11.99,11.78,7.63.36-4.36-4.18-12.49-6.92-16.49s-10.17-13.34-.96-21.22,23.04.36,23.04.36c-.12-3.15-4.73-13.7-4.73-13.7-10.67-22.07-28.12-20.14-30.43-20.14s-11.76.36-9.94,3.88c1.81,3.52-.48,4.62-.48,4.62-10.92,6.26-13.59.32-12.26-3.56,4.48-13.09,26.91-10.55,26.91-10.55,37.23,2.99,48.77,44.72,50.94,49.81,2.17,5.09,13.57,34.44,13.57,34.44h-16.36l-.92-2.72Z"/>
    <path class="cls-2" d="m450.04,391.62c-.37-1.21-4.66-12.99-11.78-14.32-4.49-.48-8.98.88-12.45,3.77-1.99,1.83-3.56,4.06-4.61,6.55-3.01-3.53-6.67-6.45-10.78-8.61-8.86-5.11-17.95,1.57-18.8,7.88-2.26,16.61,11.08,33.58,24.9,38.19,12.38,4.25,16.26.37,16.86-.48.12-.12.73-.96.73-.96l1.33,2.42h12.97l-12.61-34.94c-.85-2.17-2.67-6.9-.6-8.36.12-.12.37-.12.6-.25.92-.35,1.95-.26,2.79.25.99.64,1.86,1.46,2.54,2.42.39.51.75,1.03,1.09,1.58.99,1.52,1.81,3.15,2.44,4.86h5.37Zm-20.42,27.66c-1.94,5.82-9.34,3.4-16.49-5.34-7.15-8.73-11.51-20.49-9.57-26.31,1.94-5.82,9.37-3.4,16.49,5.34,7.28,8.72,11.51,20.49,9.57,26.31Z"/>
    <path class="cls-2" d="m490.92,413.48c-1.69.48-3.75,3.63-6.67.96-4.77-4.96-6.67-6.79-11.88-20.37-5.21-13.57-6.07-15.88-6.07-15.88h-14.55s12.65,33.58,14.23,37.83c1.33,3.65-2.67,4.73-4.13,4.36-3.15-.89-5.82-5.75-7.03-8.89h-5.46c.36,1.14,4.64,13.02,11.76,14.23,1.18.15,2.37.23,3.56.25,8.48-.12,11.51-10.55,11.51-10.55,0,0,7.28,9.57,18.45,9.57,10.17,0,4.96-14.09-3.72-11.51Z"/>
  </g>
  <rect class="cls-1" x="4.15" y="340.16" width="820.73" height="227.17"/>
  <g>
    <path class="cls-2" d="m328.39,218.27c4.98,5.57-3.27,8-5.09,8s-9.46,0-9.57-7.12c0,0,.48-1.94-4-1.78s-15.05,2.79-22.32,15.16c-3.3,6.04-6.02,12.38-8.13,18.93h8.89l-1.46,6.42h-9.98s-4.23,12.52-15.28,38.49c-11.05,25.97-21.7,35.04-35.27,43.17s-32.14,5.34-37-1.78,7.65-12.26,13.34-6.07c.83,1.22.97,2.78.37,4.13,0,0-1.58,5.57,13.09.48,14.67-5.09,23.64-22.93,29.58-39.42,12.99-36.13,13.47-38.31,13.47-38.31h-15.16l1.94-7.12,16.74.11s10.07-37.83,40-39.13c11.28-.84,20.87.34,25.83,5.83Z"/>
    <path class="cls-2" d="m278.57,277.55c1.44-7.03,9.09-24.12,35.58-23.52,14.55.36,23.28,10.9,18.55,24.01-4.73,13.11-20.62,23.64-35.58,23.52-12.01-.12-21.83-8.61-18.55-24.01Zm37.35,6.67c5.34-11.03,4.98-22.79-.96-26.31-5.94-3.52-15.05,2.54-20.49,13.57s-4.98,22.8.96,26.33c5.94,3.52,15.14-2.54,20.47-13.59h.02Z"/>
    <path class="cls-2" d="m382.36,290.77c-7.76,24.26-15.51,30.56-15.51,30.56-26.2,27.41-55.05,13.11-55.05,13.11-10.57-3.9-6.44-15.17.71-13.11,10.07,2.92,5.23,7.4,5.23,7.4,4.23,6.31,34.44,9.71,44.47-25.35,1.44-4.96-.37-3.27-.37-3.27-5.94,3.65-25.22,5.21-28.02-8.24-2.79-13.45,14.92-32.62,25.12-36.38,10.19-3.75,20.97-.37,20.97-.37l.85-1.78h15.03l-13.43,37.43Zm-17.22-2.29c7.12-8.73,11.53-20.49,9.59-26.33-1.94-5.83-9.21-3.38-16.49,5.34s-11.53,20.51-9.59,26.33,9.34,3.4,16.49-5.34h0Z"/>
    <path class="cls-2" d="m533.7,237.67l-13.95-.11-8.89,16.61h-5.11l-1.69,4.11h5.21l-10.67,23.89s-7.28,14.92,7.4,19.57c7.03,2.19,15.76,3.15,25.7-18.07h-6.55s-7.03,16.26-13.82,13.09c-2.19-.96-1.78-3.88-.12-7.88l13.82-30.24h9.11l2.05-4.13h-9.77l7.28-16.84Z"/>
    <path class="cls-2" d="m584.27,253.79h16.36s-11.4,29.35-13.57,34.44c-2.17,5.09-13.71,46.82-50.94,49.81,0,0-22.43,2.54-26.91-10.55-1.33-3.88,1.33-9.82,12.26-3.56,0,0,2.29,1.1.48,4.62s7.63,3.88,9.94,3.88,19.76,1.94,30.43-20.14c0,0,4.61-10.55,4.73-13.7,0,0-13.82,8.24-23.04.36-9.21-7.88-1.78-17.22.96-21.22s7.28-12.13,6.92-16.49-10.92-1.09-11.78,7.63h-5.09s1.78-14.43,16.61-15.16c13.47-.73,14.67,15.16,10.8,21.1-2.44,3.65-8.48,14.07-9.21,15.4s-3.56,7.12,3.56,6.55,13.71-13.57,15.88-16.36,10.67-23.89,10.67-23.89l.92-2.72Z"/>
    <path class="cls-2" d="m444.33,288.83c-.63,1.7-1.45,3.33-2.44,4.86-.33.55-.69,1.08-1.09,1.58-.69.96-1.55,1.78-2.54,2.42-.84.51-1.87.6-2.79.25-.23-.12-.48-.12-.6-.25-2.06-1.46-.25-6.19.6-8.36l12.61-34.94h-12.97l-1.33,2.42s-.6-.84-.73-.96c-.6-.85-4.48-4.73-16.86-.48-13.82,4.61-27.16,21.58-24.9,38.19.85,6.31,9.94,12.99,18.8,7.88,4.11-2.16,7.77-5.08,10.78-8.61,1.05,2.49,2.62,4.72,4.61,6.55,3.47,2.89,7.96,4.25,12.45,3.77,7.12-1.33,11.4-13.11,11.78-14.32h-5.37Zm-24.62-1.35c-7.12,8.73-14.55,11.15-16.49,5.34-1.94-5.82,2.42-17.57,9.57-26.31s14.55-11.15,16.49-5.34c1.94,5.82-2.29,17.59-9.57,26.31Z"/>
    <path class="cls-2" d="m494.3,255.46c-11.17,0-18.45,9.57-18.45,9.57,0,0-3.02-10.42-11.51-10.55-1.19.02-2.38.1-3.56.25-7.12,1.21-11.4,13.09-11.76,14.23h5.46c1.21-3.15,3.88-8,7.03-8.89,1.46-.37,5.46.71,4.13,4.36-1.58,4.25-14.23,37.83-14.23,37.83h14.55s.85-2.31,6.07-15.88c5.21-13.57,7.12-15.4,11.88-20.37,2.92-2.67,4.98.48,6.67.96,8.68,2.58,13.89-11.51,3.72-11.51Z"/>
  </g>
</svg>