<?xml version="1.0" encoding="UTF-8"?>
<svg id="Layer_1" data-name="Layer 1" xmlns="http://www.w3.org/2000/svg" xmlns:xlink="http://www.w3.org/1999/xlink" viewBox="0 0 824.88 680.31">
  <defs>
    <style>
      .cls-1 {
        fill: url(#linear-gradient);
      }

      .cls-2 {
        fill: #fcfcfc;
      }

      .cls-3 {
        fill: #fefefe;
      }

      .cls-4 {
        fill: #919191;
      }

      .cls-5 {
        fill: #929292;
      }

      .cls-6 {
        fill: #909090;
      }

      .cls-7 {
        fill: #0f0f0f;
      }

      .cls-8 {
        fill: #0e0e0e;
      }

      .cls-9 {
        fill: #949494;
      }
    </style>
    <linearGradient id="linear-gradient" x1="412.44" y1="374.89" x2="412.44" y2="680.31" gradientUnits="userSpaceOnUse">
      <stop offset="0" stop-color="#fff" stop-opacity=".8"/>
      <stop offset=".05" stop-color="#fff" stop-opacity=".84"/>
      <stop offset=".19" stop-color="#fff" stop-opacity=".91"/>
      <stop offset=".36" stop-color="#fff" stop-opacity=".96"/>
      <stop offset=".57" stop-color="#fff" stop-opacity=".99"/>
      <stop offset="1" stop-color="#fff"/>
    </linearGradient>
  </defs>
  <g>
    <g id="vQt93D.tif">
      <g>
        <path class="cls-6" d="m405.39,312.56c.67-.89,1.23-1.57,1.74-2.3,5.84-8.45,7.83-17.48,4.26-27.43-2.3-6.41-5.3-12.64-6.1-19.49-1.12-9.6,1.65-18.07,8.26-25.17,1.95-2.1,4.37-3.47,7.2-3.8.72.84.24,1.39-.06,1.91-6.96,11.92-6.94,24.27-.83,36.21,8.84,17.28.92,30.9-12.17,39.84-.52.36-1.08.7-2.3.24Z"/>
        <path class="cls-7" d="m382.47,350.2c0-4.76.04-9.52-.02-14.28-.03-2.38.49-5.06-2.72-6.08-.57-.18-.61-.75-.46-1.29.22-.79.85-.9,1.51-.87,9.24.33,18.52-.9,27.71.75,4.49.81,7.56,3.66,9.67,7.58,7.58,14.1-1.68,31.24-17.58,32.77-5.42.52-10.79-.43-16.18-.07-2.14.14-2.12-1.11-2.1-2.69.07-5.27.03-10.55.03-15.82.05,0,.1,0,.14,0Z"/>
        <path class="cls-8" d="m191.66,349.6c8.98,7.28,12.29,19.37,22.74,25.17-5.79,1.26-10.39-.59-14.05-4.86-3.61-4.22-6.3-9.09-9.31-13.73-1.84-2.85-3.57-5.75-7.49-5.97-.73-.04-1.25-.34-1.1-1.18.12-.7.58-1.14,1.29-1.21,1.79-.2,3.61-.2,5.36-.58,4.18-.92,6.59-4.48,6.22-8.9-.39-4.57-3.19-7.33-7.7-7.57-6.39-.35-6.89-.01-6.77,6.28.19,10.29-.79,20.61.86,30.86.09.58.5,1.1-.39,1.55-3.01,1.53-6.13-.42-6.12-3.79.04-9.53.1-19.07-.04-28.6-.03-2.41.34-5.14-2.81-6.56-1.42-.64-.41-1.97.71-1.91,7.06.38,14.14-1.67,21.16.16,3.66.95,5.39,3.67,6.13,7.21.85,4.04-.34,7.42-3.37,10.06-1.52,1.33-3.37,2.29-5.33,3.59Z"/>
        <path class="cls-6" d="m432.24,301.49c0-1.26-.11-1.67.02-1.99,3.77-9.93,1.37-18.85-3.96-27.56-3.65-5.96-6.31-12.36-5.88-19.68.33-5.65,2.36-10.45,6.55-15.19.02,3.49-.91,6.28-.6,9.16.8,7.6,3.8,14.24,8.98,19.69,6.46,6.8,6.84,14.36,3.66,22.54-1.82,4.69-4.41,8.94-8.76,13.04Z"/>
        <path class="cls-7" d="m603.18,366.44c-10.28.01-17.4-7.43-17.3-18.06.1-10.24,8.26-18.27,18.54-18.23,10.34.03,17.37,7.08,17.47,17.52.11,10.73-7.9,18.77-18.71,18.78Z"/>
        <path class="cls-7" d="m659.74,355.98c.66-7.22.73-14.36.17-21.48-.15-1.96-.12-3.05,2.4-3.01,2.33.04,2.33,1.13,2.3,2.87-.14,9.38-.16,18.77-.3,28.15-.02,1.07,1.21,2.81-.87,3.12-1.54.23-3,.3-4.33-1.47-6.26-8.32-12.77-16.44-19.2-24.63-.24-.3-.46-.61-1.04-1.39-.9,3.76-.46,7.01-.44,10.21.03,4.74-.52,9.52.57,14.23.32,1.39.32,2.58-1.68,2.54-1.6-.03-3,.17-2.9-2.3.35-8.34,1.03-16.69.06-25.04-.18-1.5.17-3.19-1.69-3.92-.77-.3-.89-.83-.66-1.52.26-.78.93-.74,1.57-.77,4.22-.17,7.94-.41,10.6,4.48,3.98,7.33,9.85,13.44,15.44,19.93Z"/>
        <path class="cls-7" d="m447.86,366.44c-10.11,0-16.73-7.12-16.71-17.98.02-10.59,7.79-18.43,18.16-18.32,10.29.11,17.31,7.25,17.32,17.61.01,10.77-7.93,18.68-18.77,18.69Z"/>
        <path class="cls-7" d="m213.83,348.68c-.05-10.54,7.59-18.38,18.06-18.54,10.31-.16,17.21,6.83,17.29,17.54.09,10.61-7.79,18.67-18.34,18.76-10.17.08-16.96-7.01-17.02-17.76Z"/>
        <path class="cls-6" d="m414.61,230.69c-.51,1.48-1.72,1.43-2.58,1.81-6.87,2.99-12.04,7.8-15.56,14.38-2.81,5.26-6.1,10.17-10.82,13.9-5.66,4.47-11.89,6.2-19.04,3.39,6.63-.5,10.04-5.17,13.36-9.89,2.29-3.26,4.41-6.64,6.72-9.89,5.39-7.6,12.56-12.4,21.89-13.74,1.99-.29,3.97-.47,6.04.05Z"/>
        <path class="cls-7" d="m503.35,345.17c-.17-3.86-.17-7.73-.59-11.56-.17-1.59.06-2.26,1.58-2,1.24.22,3.64-1.11,3.33,1.67-.87,7.83-.15,15.69-.77,23.52-.03.38-.13.76-.24,1.13-1.76,6.12-8.19,9.35-16.75,8.43-6.54-.71-10.7-4.9-10.91-11.32-.18-5.66-.08-11.33-.11-17,0-1.27.2-2.59-1.06-3.52-.7-.51-2.3-.46-1.48-2.06.61-1.18,1.75-.86,2.74-.89,1.03-.04,2.07.06,3.09-.02,1.88-.15,2.4.51,2.16,2.47-.82,6.66-.46,13.37-.25,20.05.18,5.72,3.71,8.97,9.01,8.97,5.92,0,9.72-3.51,9.95-9.37.11-2.83.02-5.66.02-8.5.09,0,.18,0,.27,0Z"/>
        <path class="cls-7" d="m322.12,364.75c-6.16.82-5.96.74-7.93-4.68-1.13-3.08-.63-7.53-6.48-7.21-8.73.48-9.64.69-10.78,9.51-.33,2.55-1.3,2.8-3.36,2.79-2.33-.02-2.57-.79-1.68-2.78,2.1-4.68,4.06-9.43,6.01-14.18,1.99-4.87,4-9.74,5.78-14.69.76-2.1,2.09-2.6,4.07-2.77,2.26-.19,1.94,1.53,2.4,2.73,3.88,10.33,7.27,20.84,11.98,31.27Z"/>
        <path class="cls-6" d="m402.88,246.53c-3.03,9.41-2.55,18.81-1.3,28.33.59,4.49-1.41,8.58-4.34,12.05-4.26,5.04-9.85,7.87-16.09,9.74,6.97-6.36,11.03-13.92,11.52-23.36.18-3.33.73-6.67,1.48-9.92,1.45-6.28,3.71-12.22,8.72-16.85Z"/>
        <path class="cls-6" d="m430.02,207.81c.29-5.1,3.77-8.89,8.45-9.2,4.83-.33,7.51,1.93,8.57,7.45.89,4.63.22,9.24-.63,13.81-.3,1.6-1.31,2.42-2.9,2.65-5.13.74-9.48,3.15-13.49,6.31-.78.62-1.63,1.6-2.73.98-5.22-2.99-10.97-3.97-17.19-4.17,3.52-4.28,8.42-5.44,13.79-2.18,4.88,2.96,8.23.75,11.9-1.6,4.04-2.59,6.59-6.09,6.34-11.17-.12-2.41-.56-4.68-2.86-5.98-2.45-1.38-4.42.09-6.42,1.3-.95.58-1.52,1.78-2.84,1.8Z"/>
        <path class="cls-7" d="m284.84,331.86c-2.06,3.58-3.72,7.07-5.93,10.16-4.36,6.1-5.53,12.84-4.63,20.05.29,2.33-.19,3.16-2.69,3.13-2.63-.02-3.33-.87-2.92-3.43,1.78-11.28-3.77-19.87-10.6-27.9-.69-.81-.72-1.26-.1-1.85,1.45-1.4,6.74-.28,7.61,1.56,2.13,4.51,4.27,9.01,6.68,14.1,2.24-4.19,5.14-7.57,5.58-11.55.54-4.88,2.97-5.12,6.99-4.26Z"/>
        <path class="cls-4" d="m459.66,249.97c.69-1.28,1.86-1.07,2.79-1.39,1.02-.35,2.61.12,2.84-1.4.19-1.26-1.01-2-1.87-2.74-3.14-2.7-6.86-4.51-10.36-6.66-3.76-2.3-6.56-5.26-6.47-11.14,6.15,7.93,14.4,11.65,21.72,16.66,2.81,1.93,2.75,4.81,2.14,7.65-.74,3.4-1.4,6.71-.74,10.25.52,2.77-.96,4.59-3.66,5.53-4.17,1.44-8.77.05-12.85,2.12-.75.38-1.06-.44-1.13-1.12-.13-1.37.04-2.79,1.64-3.02,2.02-.3,4.09-.24,6.14-.34,5.58-.26,8.14-3.82,5.79-8.74-.94-1.96-3.95-2.44-5.11-4.65-.21-.4-.61-.71-.88-1.02Z"/>
        <path class="cls-7" d="m549.81,336.98c-1.16-4.61.45-5.63,4.15-5.48,6.8.28,13.62.1,20.42.08,5.16-.02,5.16-.04,3.26,5.11-2.07-1.65-4.49-1.88-6.99-2.2-3.25-.42-4.26.37-4.09,3.71.42,8.21-.47,16.46.52,24.65.32,2.65-1.33,2.27-2.82,2.25-1.57-.02-3.56.55-3.21-2.32,1.04-8.45.23-16.95.52-25.42.09-2.45-.42-3.58-3.25-2.88-2.78.69-6-.58-8.52,2.49Z"/>
        <path class="cls-7" d="m544.61,359.82c-.97,6.07-.97,5.96-6.33,5.56-3.71-.27-7.44-.27-11.16-.23-1.98.02-2.55-.58-2.51-2.67.17-8.22.09-16.44.07-24.66,0-1.11.31-2.3-.59-3.31-.65-.73-2.67-.7-1.63-2.37.72-1.14,2.14-.37,3.23-.58,3.79-.74,4.67.82,4.47,4.52-.37,6.92-.14,13.87-.09,20.8.03,4.81,1.17,5.81,6.04,5.64,4.03-.15,4.97-.44,8.5-2.7Z"/>
        <path class="cls-7" d="m355.28,360.17c-.15,5.6-.25,5.6-4.85,5.29-3.84-.26-7.71-.36-11.56-.29-2.38.04-2.99-.73-2.92-3.14.23-7.84.15-15.69.16-23.54,0-1.4.16-2.88-.84-4.06-.59-.7-2.16-.94-1.31-2.29.63-1,1.89-.41,2.85-.58,3.82-.69,5.01.69,4.78,4.68-.4,7.05-.03,14.15-.14,21.22-.06,3.6,1.46,5.26,5.07,5.08,2.96-.15,5.92-.2,8.76-2.37Z"/>
        <path class="cls-4" d="m426.02,216.12c-2.19-2.53-4.09-5.29-6.76-7.33-2.7-2.06-5.57-3.34-8.94-1.7-3.25,1.58-3.38,4.62-3.26,7.64.09,2.25.42,4.48.74,7.73-3.62-4.67-5.4-8.92-4.76-13.9.81-6.28,5.34-9.04,11.44-7.15,5.75,1.78,10.55,7.68,11.55,14.71Z"/>
        <path class="cls-5" d="m455.63,292.06c-1.62-4.48-1.63-7.73-.69-11,.84-2.93,2.77-4.64,5.92-4.47,4.15.23,7.63-.67,9.32-5.28,2.07,5.37.58,9.13-4.4,9.44-6.75.41-9.52,3.96-10.14,11.3Z"/>
        <path class="cls-5" d="m428.78,200.65c-.23,2.07-1.13,3.55-3.33,3.44-2.8-.14-4.02-2.12-4.12-4.6-.09-2.21,1.36-3.71,3.56-3.61,2.86.13,3.56,2.43,3.9,4.77Z"/>
        <path class="cls-9" d="m440.55,245.08c2.31-3.21,4.48-4.67,7.53-4.29,1.32.16,2.48.86,2.33,2.49-.14,1.46-1.28,1.77-2.49,1.79-2.14.04-4.29.01-7.37.01Z"/>
        <path class="cls-3" d="m388.27,346.29c0-4.24.09-8.49-.04-12.73-.07-2.12.75-3.02,2.8-3.22,4.39-.42,8.73-.31,13.02.79.86.22,1.68.63,2.47,1.05,6.09,3.23,9.13,11.59,7.57,20.73-1.17,6.88-6.14,11.7-13.12,12.77-.76.12-1.52.27-2.29.36-8.31.91-10.4-.97-10.41-9.33,0-3.47,0-6.95,0-10.42Z"/>
        <path class="cls-3" d="m592,347.27c.14-3.05.7-6.21,2.47-9,4.49-7.07,14.62-6.72,18.79.78,3.01,5.43,3.48,11.27,1.1,17.09-1.79,4.39-5,7.03-9.97,7.2-5.16.18-8.51-2.42-10.57-6.88-1.31-2.83-1.76-5.89-1.81-9.2Z"/>
        <path class="cls-3" d="m460.78,348.5c.2,9.41-4.72,15.15-12.53,14.83-4.43-.18-7.53-2.44-9.4-6.32-2.39-4.95-2.79-10.14-1.1-15.38,1.77-5.47,6.77-8.89,12.01-8.38,5.27.51,9.72,5.32,10.71,11.63.2,1.27.22,2.57.31,3.63Z"/>
        <path class="cls-3" d="m243.25,349.02c.14,9.39-4.96,14.94-13,14.28-.64-.05-1.28-.12-1.89-.3-5.8-1.68-9.3-8.03-8.98-16.25.28-7.13,3.97-12.05,10.02-13.32,6.73-1.42,12.88,3.94,13.84,12.13.13,1.14.02,2.31.02,3.46Z"/>
        <path class="cls-2" d="m306.03,336.04c1.66,4.76,2.95,8.44,4.23,12.13.32.93.42,1.87-.92,1.92-2.29.07-4.59.1-6.87,0-1.65-.07-1.27-1.3-.92-2.24,1.31-3.56,2.69-7.09,4.49-11.8Z"/>
      </g>
    </g>
    <g id="vQt93D.tif-2" data-name="vQt93D.tif">
      <g>
        <path class="cls-6" d="m408.08,437.5c.67.89,1.23,1.57,1.74,2.3,5.84,8.45,7.83,17.48,4.26,27.43-2.3,6.41-5.3,12.64-6.1,19.49-1.12,9.6,1.65,18.07,8.26,25.17,1.95,2.1,4.37,3.47,7.2,3.8.72-.84.24-1.39-.06-1.91-6.96-11.92-6.94-24.27-.83-36.21,8.84-17.28.92-30.9-12.17-39.84-.52-.36-1.08-.7-2.3-.24Z"/>
        <path class="cls-7" d="m385.16,399.85c0,4.76.04,9.52-.02,14.28-.03,2.38.49,5.06-2.72,6.08-.57.18-.61.75-.46,1.29.22.79.85.9,1.51.87,9.24-.33,18.52.9,27.71-.75,4.49-.81,7.56-3.66,9.67-7.58,7.58-14.1-1.68-31.24-17.58-32.77-5.42-.52-10.79.43-16.18.07-2.14-.14-2.12,1.11-2.1,2.69.07,5.27.03,10.55.03,15.82.05,0,.1,0,.14,0Z"/>
        <path class="cls-8" d="m194.36,400.45c8.98-7.28,12.29-19.37,22.74-25.17-5.79-1.26-10.39.59-14.05,4.86-3.61,4.22-6.3,9.09-9.31,13.73-1.84,2.85-3.57,5.75-7.49,5.97-.73.04-1.25.34-1.1,1.18.12.7.58,1.14,1.29,1.21,1.79.2,3.61.2,5.36.58,4.18.92,6.59,4.48,6.22,8.9-.39,4.57-3.19,7.33-7.7,7.57-6.39.35-6.89.01-6.77-6.28.19-10.29-.79-20.61.86-30.86.09-.58.5-1.1-.39-1.55-3.01-1.53-6.13.42-6.12,3.79.04,9.53.1,19.07-.04,28.6-.03,2.41.34,5.14-2.81,6.56-1.42.64-.41,1.97.71,1.91,7.06-.38,14.14,1.67,21.16-.16,3.66-.95,5.39-3.67,6.13-7.21.85-4.04-.34-7.42-3.37-10.06-1.52-1.33-3.37-2.29-5.33-3.59Z"/>
        <path class="cls-6" d="m434.93,448.56c0,1.26-.11,1.67.02,1.99,3.77,9.93,1.37,18.85-3.96,27.56-3.65,5.96-6.31,12.36-5.88,19.68.33,5.65,2.36,10.45,6.55,15.19.02-3.49-.91-6.28-.6-9.16.8-7.6,3.8-14.24,8.98-19.69,6.46-6.8,6.84-14.36,3.66-22.54-1.82-4.69-4.41-8.94-8.76-13.04Z"/>
        <path class="cls-7" d="m605.88,383.62c-10.28-.01-17.4,7.43-17.3,18.06.1,10.24,8.26,18.27,18.54,18.23,10.34-.03,17.37-7.08,17.47-17.52.11-10.73-7.9-18.77-18.71-18.78Z"/>
        <path class="cls-7" d="m662.43,394.08c.66,7.22.73,14.36.17,21.48-.15,1.96-.12,3.05,2.4,3.01,2.33-.04,2.33-1.13,2.3-2.87-.14-9.38-.16-18.77-.3-28.15-.02-1.07,1.21-2.81-.87-3.12-1.54-.23-3-.3-4.33,1.47-6.26,8.32-12.77,16.44-19.2,24.63-.24.3-.46.61-1.04,1.39-.9-3.76-.46-7.01-.44-10.21.03-4.74-.52-9.52.57-14.23.32-1.39.32-2.58-1.68-2.54-1.6.03-3-.17-2.9,2.3.35,8.34,1.03,16.69.06,25.04-.18,1.5.17,3.19-1.69,3.92-.77.3-.89.83-.66,1.52.26.78.93.74,1.57.77,4.22.17,7.94.41,10.6-4.48,3.98-7.33,9.85-13.44,15.44-19.93Z"/>
        <path class="cls-7" d="m450.55,383.62c-10.11,0-16.73,7.12-16.71,17.98.02,10.59,7.79,18.43,18.16,18.32,10.29-.11,17.31-7.25,17.32-17.61.01-10.77-7.93-18.68-18.77-18.69Z"/>
        <path class="cls-7" d="m216.53,401.38c-.05,10.54,7.59,18.38,18.06,18.54,10.31.16,17.21-6.83,17.29-17.54.09-10.61-7.79-18.67-18.34-18.76-10.17-.08-16.96,7.01-17.02,17.76Z"/>
        <path class="cls-6" d="m417.3,519.37c-.51-1.48-1.72-1.43-2.58-1.81-6.87-2.99-12.04-7.8-15.56-14.38-2.81-5.26-6.1-10.17-10.82-13.9-5.66-4.47-11.89-6.2-19.04-3.39,6.63.5,10.04,5.17,13.36,9.89,2.29,3.26,4.41,6.64,6.72,9.89,5.39,7.6,12.56,12.4,21.89,13.74,1.99.29,3.97.47,6.04-.05Z"/>
        <path class="cls-7" d="m506.04,404.89c-.17,3.86-.17,7.73-.59,11.56-.17,1.59.06,2.26,1.58,2,1.24-.22,3.64,1.11,3.33-1.67-.87-7.83-.15-15.69-.77-23.52-.03-.38-.13-.76-.24-1.13-1.76-6.12-8.19-9.35-16.75-8.43-6.54.71-10.7,4.9-10.91,11.32-.18,5.66-.08,11.33-.11,17,0,1.27.2,2.59-1.06,3.52-.7.51-2.3.46-1.48,2.06.61,1.18,1.75.86,2.74.89,1.03.04,2.07-.06,3.09.02,1.88.15,2.4-.51,2.16-2.47-.82-6.66-.46-13.37-.25-20.05.18-5.72,3.71-8.97,9.01-8.97,5.92,0,9.72,3.51,9.95,9.37.11,2.83.02,5.66.02,8.5.09,0,.18,0,.27,0Z"/>
        <path class="cls-7" d="m324.81,385.3c-6.16-.82-5.96-.74-7.93,4.68-1.13,3.08-.63,7.53-6.48,7.21-8.73-.48-9.64-.69-10.78-9.51-.33-2.55-1.3-2.8-3.36-2.79-2.33.02-2.57.79-1.68,2.78,2.1,4.68,4.06,9.43,6.01,14.18,1.99,4.87,4,9.74,5.78,14.69.76,2.1,2.09,2.6,4.07,2.77,2.26.19,1.94-1.53,2.4-2.73,3.88-10.33,7.27-20.84,11.98-31.27Z"/>
        <path class="cls-6" d="m405.58,503.52c-3.03-9.41-2.55-18.81-1.3-28.33.59-4.49-1.41-8.58-4.34-12.05-4.26-5.04-9.85-7.87-16.09-9.74,6.97,6.36,11.03,13.92,11.52,23.36.18,3.33.73,6.67,1.48,9.92,1.45,6.28,3.71,12.22,8.72,16.85Z"/>
        <path class="cls-6" d="m432.71,542.24c.29,5.1,3.77,8.89,8.45,9.2,4.83.33,7.51-1.93,8.57-7.45.89-4.63.22-9.24-.63-13.81-.3-1.6-1.31-2.42-2.9-2.65-5.13-.74-9.48-3.15-13.49-6.31-.78-.62-1.63-1.6-2.73-.98-5.22,2.99-10.97,3.97-17.19,4.17,3.52,4.28,8.42,5.44,13.79,2.18,4.88-2.96,8.23-.75,11.9,1.6,4.04,2.59,6.59,6.09,6.34,11.17-.12,2.41-.56,4.68-2.86,5.98-2.45,1.38-4.42-.09-6.42-1.3-.95-.58-1.52-1.78-2.84-1.8Z"/>
        <path class="cls-7" d="m287.53,418.19c-2.06-3.58-3.72-7.07-5.93-10.16-4.36-6.1-5.53-12.84-4.63-20.05.29-2.33-.19-3.16-2.69-3.13-2.63.02-3.33.87-2.92,3.43,1.78,11.28-3.77,19.87-10.6,27.9-.69.81-.72,1.26-.1,1.85,1.45,1.4,6.74.28,7.61-1.56,2.13-4.51,4.27-9.01,6.68-14.1,2.24,4.19,5.14,7.57,5.58,11.55.54,4.88,2.97,5.12,6.99,4.26Z"/>
        <path class="cls-4" d="m462.35,500.08c.69,1.28,1.86,1.07,2.79,1.39,1.02.35,2.61-.12,2.84,1.4.19,1.26-1.01,2-1.87,2.74-3.14,2.7-6.86,4.51-10.36,6.66-3.76,2.3-6.56,5.26-6.47,11.14,6.15-7.93,14.4-11.65,21.72-16.66,2.81-1.93,2.75-4.81,2.14-7.65-.74-3.4-1.4-6.71-.74-10.25.52-2.77-.96-4.59-3.66-5.53-4.17-1.44-8.77-.05-12.85-2.12-.75-.38-1.06.44-1.13,1.12-.13,1.37.04,2.79,1.64,3.02,2.02.3,4.09.24,6.14.34,5.58.26,8.14,3.82,5.79,8.74-.94,1.96-3.95,2.44-5.11,4.65-.21.4-.61.71-.88,1.02Z"/>
        <path class="cls-7" d="m552.5,413.07c-1.16,4.61.45,5.63,4.15,5.48,6.8-.28,13.62-.1,20.42-.08,5.16.02,5.16.04,3.26-5.11-2.07,1.65-4.49,1.88-6.99,2.2-3.25.42-4.26-.37-4.09-3.71.42-8.21-.47-16.46.52-24.65.32-2.65-1.33-2.27-2.82-2.25-1.57.02-3.56-.55-3.21,2.32,1.04,8.45.23,16.95.52,25.42.09,2.45-.42,3.58-3.25,2.88-2.78-.69-6,.58-8.52-2.49Z"/>
        <path class="cls-7" d="m547.31,390.23c-.97-6.07-.97-5.96-6.33-5.56-3.71.27-7.44.27-11.16.23-1.98-.02-2.55.58-2.51,2.67.17,8.22.09,16.44.07,24.66,0,1.11.31,2.3-.59,3.31-.65.73-2.67.7-1.63,2.37.72,1.14,2.14.37,3.23.58,3.79.74,4.67-.82,4.47-4.52-.37-6.92-.14-13.87-.09-20.8.03-4.81,1.17-5.81,6.04-5.64,4.03.15,4.97.44,8.5,2.7Z"/>
        <path class="cls-7" d="m357.97,389.88c-.15-5.6-.25-5.6-4.85-5.29-3.84.26-7.71.36-11.56.29-2.38-.04-2.99.73-2.92,3.14.23,7.84.15,15.69.16,23.54,0,1.4.16,2.88-.84,4.06-.59.7-2.16.94-1.31,2.29.63,1,1.89.41,2.85.58,3.82.69,5.01-.69,4.78-4.68-.4-7.05-.03-14.15-.14-21.22-.06-3.6,1.46-5.26,5.07-5.08,2.96.15,5.92.2,8.76,2.37Z"/>
        <path class="cls-4" d="m428.71,533.93c-2.19,2.53-4.09,5.29-6.76,7.33-2.7,2.06-5.57,3.34-8.94,1.7-3.25-1.58-3.38-4.62-3.26-7.64.09-2.25.42-4.48.74-7.73-3.62,4.67-5.4,8.92-4.76,13.9.81,6.28,5.34,9.04,11.44,7.15,5.75-1.78,10.55-7.68,11.55-14.71Z"/>
        <path class="cls-5" d="m458.32,457.99c-1.62,4.48-1.63,7.73-.69,11,.84,2.93,2.77,4.64,5.92,4.47,4.15-.23,7.63.67,9.32,5.28,2.07-5.37.58-9.13-4.4-9.44-6.75-.41-9.52-3.96-10.14-11.3Z"/>
        <path class="cls-5" d="m431.47,549.41c-.23-2.07-1.13-3.55-3.33-3.44-2.8.14-4.02,2.12-4.12,4.6-.09,2.21,1.36,3.71,3.56,3.61,2.86-.13,3.56-2.43,3.9-4.77Z"/>
        <path class="cls-9" d="m443.24,504.97c2.31,3.21,4.48,4.67,7.53,4.29,1.32-.16,2.48-.86,2.33-2.49-.14-1.46-1.28-1.77-2.49-1.79-2.14-.04-4.29-.01-7.37-.01Z"/>
        <path class="cls-3" d="m390.96,403.77c0,4.24.09,8.49-.04,12.73-.07,2.12.75,3.02,2.8,3.22,4.39.42,8.73.31,13.02-.79.86-.22,1.68-.63,2.47-1.05,6.09-3.23,9.13-11.59,7.57-20.73-1.17-6.88-6.14-11.7-13.12-12.77-.76-.12-1.52-.27-2.29-.36-8.31-.91-10.4.97-10.41,9.33,0,3.47,0,6.95,0,10.42Z"/>
        <path class="cls-3" d="m594.69,402.78c.14,3.05.7,6.21,2.47,9,4.49,7.07,14.62,6.72,18.79-.78,3.01-5.43,3.48-11.27,1.1-17.09-1.79-4.39-5-7.03-9.97-7.2-5.16-.18-8.51,2.42-10.57,6.88-1.31,2.83-1.76,5.89-1.81,9.2Z"/>
        <path class="cls-3" d="m463.47,401.55c.2-9.41-4.72-15.15-12.53-14.83-4.43.18-7.53,2.44-9.4,6.32-2.39,4.95-2.79,10.14-1.1,15.38,1.77,5.47,6.77,8.89,12.01,8.38,5.27-.51,9.72-5.32,10.71-11.63.2-1.27.22-2.57.31-3.63Z"/>
        <path class="cls-3" d="m245.94,401.03c.14-9.39-4.96-14.94-13-14.28-.64.05-1.28.12-1.89.3-5.8,1.68-9.3,8.03-8.98,16.25.28,7.13,3.97,12.05,10.02,13.32,6.73,1.42,12.88-3.94,13.84-12.13.13-1.14.02-2.31.02-3.46Z"/>
        <path class="cls-2" d="m308.72,414.01c1.66-4.76,2.95-8.44,4.23-12.13.32-.93.42-1.87-.92-1.92-2.29-.07-4.59-.1-6.87,0-1.65.07-1.27,1.3-.92,2.24,1.31,3.56,2.69,7.09,4.49,11.8Z"/>
      </g>
    </g>
  </g>
  <rect class="cls-1" y="374.89" width="824.88" height="305.42"/>
</svg>