<?xml version="1.0" encoding="UTF-8"?>
<svg id="Layer_1" data-name="Layer 1" xmlns="http://www.w3.org/2000/svg" xmlns:xlink="http://www.w3.org/1999/xlink" viewBox="0 0 824.88 680.31">
  <defs>
    <style>
      .cls-1 {
        fill: url(#linear-gradient);
      }

      .cls-2 {
        fill: #231f20;
      }
    </style>
    <linearGradient id="linear-gradient" x1="412.44" y1="340.71" x2="412.44" y2="575.12" gradientUnits="userSpaceOnUse">
      <stop offset="0" stop-color="#fff" stop-opacity=".8"/>
      <stop offset=".05" stop-color="#fff" stop-opacity=".84"/>
      <stop offset=".19" stop-color="#fff" stop-opacity=".91"/>
      <stop offset=".36" stop-color="#fff" stop-opacity=".96"/>
      <stop offset=".57" stop-color="#fff" stop-opacity=".99"/>
      <stop offset="1" stop-color="#fff"/>
    </linearGradient>
  </defs>
  <path class="cls-2" d="m389.07,340.7v-120.11c0-5.55-.31-9.08-1.01-12.21-3.56-15.84-15.99-24.32-36.33-24.32h-6.75v67.35l-46.13-67.35h-45.11v120.11c0,5.54.3,9.08,1.01,12.21,3.55,15.83,15.98,24.31,36.33,24.31h6.75v-68.35l46.73,68.35h44.5Zm-127.92-149.26h33.69l57.54,83.88v-84.29h1.37c14.15,0,23.65,6.26,26.79,18.26.76,2.93,1.12,6.25,1.12,11.95v112.08h-33.14l-58.1-85.05v85.45h-1.37c-14.16,0-23.65-6.26-26.8-18.27-.76-2.92-1.11-6.25-1.11-11.95v-112.08Zm241.94,93.98c0,9.98,4.36,16.03,14.26,16.03s14.26-6.05,14.26-16.03-4.36-16.05-14.26-16.05-14.26,6.06-14.26,16.05m60.03,15.33c-1.43.21-2.64.3-3.7.3-4.22,0-5.73-1.61-6.91-4.03l-3.86-7.87h-3.85v11.6h-7.92v-30.67h12.79c7.77,0,11.62,3.83,11.62,9.64,0,3.98-1.57,6.7-5.18,8.31l7.01,12.71Zm-24.11-40.15c-1.27.15-2.33.2-3.25.2-4.31,0-5.33-1.41-6.34-3.99l-2.99-7.82h-3.5v11.6h-7.72v-30.67h12.08c7.76,0,11.62,3.83,11.62,9.69,0,3.98-1.83,6.96-5.28,8.37l5.38,12.61Zm-116.05-11.81c-.86-2.32-2.49-5.85-4.26-8.78l-3.5-5.8c-2.03-3.38-3.25-4.29-6.29-4.29h-3.6v30.67h7.1v-19.12h.1c.86,2.37,2.69,6.1,4.47,9.03l3.8,6.3c1.73,2.88,3.05,3.79,6.04,3.79h3.35v-30.67h-7.1v18.86h-.1Zm.81,51.95v-12.81h-10.55v12.81h-7.92v-30.67h7.92v11.85h10.55v-11.85h7.91v30.67h-7.91Zm29.74-40.15l-1.37-5.35h-9.24l-1.17,5.35h-7.76l7.92-30.67h10.45l9.03,30.67h-7.86Zm106.86,0l-1.27-5.35h-9.29l-1.22,5.35h-7.76l8.32-30.67h10.46l8.63,30.67h-7.87Zm-58.66-30.67h7.71v20.58c0,8.32-5.78,10.8-12.02,10.8s-12.03-2.47-12.03-10.8v-20.58h1.83c4.41,0,5.89,2.07,5.89,6.15v14.22c0,3.33,1.42,4.85,4.31,4.85s4.31-1.51,4.31-4.85v-20.37Zm-38.06,71.52c-4.47,0-8.83-1.21-12.64-4.24l3.2-5.29c2.13,1.81,5.37,3.58,9.08,3.58,2.89,0,5.22-.7,5.22-2.97,0-5.39-16.13-2.83-16.13-13.72,0-6.4,5.53-9.43,11.57-9.43,4.52,0,8.27,1.36,11.16,3.74l-2.84,5.3c-2.38-1.87-5.38-3.08-8.32-3.08-2.53,0-3.96.96-3.96,2.63,0,5.35,16.15,2.82,16.15,13.77,0,6.1-5.33,9.73-12.49,9.73m-33.45,13.67v25.58h4.12v-30.67h-5.64l-8.88,20.28-8.88-20.28h-5.64v30.67h4.11v-25.58h.1c.4,1.51,1.21,3.93,2.63,7.16l6.44,14.38h2.43l6.44-14.38c1.47-3.23,2.23-5.65,2.64-7.16h.1Zm147.11-31.98l5.73-13.07h8.63l-10.51,20.48v10.19h-7.81v-10.19l-10.51-20.48h8.63l5.73,13.07h.1Zm-91.29,17.6v-24.46h-7.76v-6.2h23.75v1.46c0,3.32-1.32,4.74-5.53,4.74h-2.53v24.46h-7.92Zm-18.87-40.15v-24.47h-7.26v-6.2h22.53v1.46c0,3.33-1.32,4.74-5.53,4.74h-2.04v24.47h-7.71Zm104.58,0v-30.67h7.71v24.46h11.01v6.21h-18.72Zm-27.3,52.71c0-2.28.97-3.28,3.25-3.28h.86v20.33c0,8.12-6.09,11.05-11.57,11.05s-11.56-2.92-11.56-11.05v-20.33h4.11v20.13c0,5.7,3.6,7.66,7.46,7.66s7.46-1.96,7.46-7.66v-16.85Zm-98.54,0c0-2.28-.97-3.28-3.25-3.28h-.86v20.33c0,8.12,6.09,11.05,11.56,11.05s11.57-2.92,11.57-11.05v-20.33h-4.11v20.13c0,5.7-3.6,7.66-7.46,7.66s-7.45-1.96-7.45-7.66v-16.85Zm25.52,4.53c0,10.7,16.85,7.06,16.85,14.89,0,3.43-2.89,5.24-7.41,5.24-3.71,0-6.71-1.41-8.99-3.78l-2.38,2.98c2.89,2.77,6.65,4.24,11.46,4.24,6.4,0,11.83-2.82,11.83-8.97,0-10.74-17.2-7.72-17.2-14.88,0-2.93,2.33-4.8,6.09-4.8,3.4,0,6.35,1.32,8.42,3.49l2.54-2.53c-2.74-2.82-6.29-4.38-10.91-4.38-6.65,0-10.3,3.53-10.3,8.52m32.32,8.33h12.98v-3.33h-12.98v-9.48h11.87c2.39,0,3.31-.96,3.31-2.78v-.55h-19.29v30.67h19.99v-3.33h-15.88v-11.2Zm-65.31-56.09h7.92v30.67h-7.92v-30.67Zm84.9,15.34c0,6.5-1.42,9.83-5.99,9.83s-5.99-3.33-5.99-9.83,1.42-9.84,5.99-9.84,5.99,3.33,5.99,9.84m21.47-9.39v7.32h4.36c3.25,0,4.21-1.87,4.21-3.79s-1.17-3.53-4.31-3.53h-4.26Zm-21.87-40.15v7.31h4.06c3.25,0,4.21-1.87,4.21-3.78s-1.16-3.53-4.31-3.53h-3.95Zm-75.76-.15l-2.94,13.52h6.4l-3.35-13.52h-.1Zm107.17,0l-3.09,13.52h6.39l-3.19-13.52h-.11Zm26.64,79.39v25.58h4.11v-30.67h-5.64l-8.88,20.28-8.89-20.28h-5.63v30.67h4.11v-25.58h.1c.39,1.51,1.21,3.93,2.63,7.16l6.44,14.38h2.43l6.45-14.38c1.47-3.23,2.23-5.65,2.63-7.16h.1Z"/>
  <path class="cls-2" d="m344.57,340.86l-46.73,68.35v-68.35h-6.75c-20.35,0-32.78,8.48-36.33,24.31-.71,3.13-1.01,6.67-1.01,12.21v120.11h45.11l46.13-67.35v67.35h6.75c20.35,0,32.78-8.48,36.33-24.32.71-3.13,1.01-6.66,1.01-12.21v-120.11h-44.5Zm-83.42,37.18c0-5.7.36-9.03,1.11-11.95,3.15-12.01,12.64-18.27,26.8-18.27h1.37v85.45l58.1-85.05h33.14v112.08c0,5.7-.35,9.03-1.12,11.95-3.14,12-12.64,18.26-26.79,18.26h-1.37v-84.29l-57.54,83.88h-33.69v-112.08Zm241.94,18.1c0,9.99,4.36,16.05,14.26,16.05s14.26-6.06,14.26-16.05-4.36-16.03-14.26-16.03-14.26,6.05-14.26,16.03m53.02-2.62c3.61,1.61,5.18,4.34,5.18,8.31,0,5.81-3.86,9.64-11.62,9.64h-12.79v-30.67h7.92v11.6h3.85l3.86-7.87c1.17-2.42,2.69-4.03,6.91-4.03,1.07,0,2.28.1,3.7.3l-7.01,12.71Zm-22.47,40.05c3.45,1.41,5.28,4.39,5.28,8.37,0,5.85-3.86,9.69-11.62,9.69h-12.08v-30.67h7.72v11.6h3.5l2.99-7.82c1.02-2.58,2.04-3.99,6.34-3.99.92,0,1.98.05,3.25.2l-5.38,12.61Zm-110.57-.81v18.86h7.1v-30.67h-3.35c-2.99,0-4.32.91-6.04,3.79l-3.8,6.3c-1.78,2.93-3.6,6.66-4.47,9.03h-.1v-19.12h-7.1v30.67h3.6c3.04,0,4.26-.91,6.29-4.29l3.5-5.8c1.78-2.92,3.4-6.46,4.26-8.78h.1Zm8.62-51.95v30.67h-7.91v-11.85h-10.55v11.85h-7.92v-30.67h7.92v12.81h10.55v-12.81h7.91Zm29.69,40.15l-9.03,30.67h-10.45l-7.92-30.67h7.76l1.17,5.35h9.24l1.37-5.35h7.86Zm106.87,0l-8.63,30.67h-10.46l-8.32-30.67h7.76l1.22,5.35h9.29l1.27-5.35h7.87Zm-66.53,10.3c0-3.33-1.42-4.85-4.31-4.85s-4.31,1.51-4.31,4.85v14.22c0,4.09-1.48,6.15-5.89,6.15h-1.83v-20.58c0-8.32,5.78-10.8,12.03-10.8s12.02,2.47,12.02,10.8v20.58h-7.71v-20.37Zm-38.06-51.15c7.15,0,12.49,3.63,12.49,9.73,0,10.94-16.15,8.42-16.15,13.77,0,1.67,1.43,2.63,3.96,2.63,2.94,0,5.94-1.21,8.32-3.08l2.84,5.3c-2.89,2.37-6.65,3.74-11.16,3.74-6.04,0-11.57-3.03-11.57-9.43,0-10.9,16.13-8.33,16.13-13.72,0-2.27-2.33-2.97-5.22-2.97-3.71,0-6.95,1.76-9.08,3.58l-3.2-5.29c3.81-3.03,8.17-4.24,12.64-4.24m-33.54-13.67c-.41-1.51-1.17-3.93-2.64-7.16l-6.44-14.38h-2.43l-6.44,14.38c-1.42,3.23-2.23,5.65-2.63,7.16h-.1v-25.58h-4.11v30.67h5.64l8.88-20.28,8.88,20.28h5.64v-30.67h-4.12v25.58h-.1Zm147.1,31.98l-5.73,13.07h-8.63l10.51-20.48v-10.19h7.81v10.19l10.51,20.48h-8.63l-5.73-13.07h-.1Zm-83.27-17.6v24.46h2.53c4.22,0,5.53,1.42,5.53,4.74v1.46h-23.75v-6.2h7.76v-24.46h7.92Zm-19.08,40.15v24.47h2.04c4.21,0,5.53,1.41,5.53,4.74v1.46h-22.53v-6.2h7.26v-24.47h7.71Zm103.57,0h12.02v6.21h-11.01v24.46h-7.71v-30.67h6.7Zm-34-69.56c0-5.7-3.6-7.66-7.46-7.66s-7.46,1.96-7.46,7.66v20.13h-4.11v-20.33c0-8.12,6.09-11.05,11.56-11.05s11.57,2.92,11.57,11.05v20.33h-.86c-2.28,0-3.25-1.01-3.25-3.28v-16.85Zm-98.54,0c0-5.7,3.6-7.66,7.45-7.66s7.46,1.96,7.46,7.66v20.13h4.11v-20.33c0-8.12-6.09-11.05-11.57-11.05s-11.56,2.92-11.56,11.05v20.33h.86c2.28,0,3.25-1.01,3.25-3.28v-16.85Zm25.52,12.31c0,4.99,3.65,8.52,10.3,8.52,4.62,0,8.17-1.56,10.91-4.38l-2.54-2.53c-2.08,2.17-5.02,3.49-8.42,3.49-3.76,0-6.09-1.87-6.09-4.8,0-7.16,17.2-4.14,17.2-14.88,0-6.15-5.43-8.97-11.83-8.97-4.81,0-8.57,1.46-11.46,4.24l2.38,2.98c2.28-2.37,5.28-3.78,8.99-3.78,4.51,0,7.41,1.81,7.41,5.24,0,7.82-16.85,4.19-16.85,14.89m32.32-19.52h15.88v-3.33h-19.99v30.67h19.29v-.55c0-1.82-.92-2.78-3.31-2.78h-11.87v-9.48h12.98v-3.33h-12.98v-11.2Zm-65.31,36.62h7.92v30.67h-7.92v-30.67Zm84.9,15.33c0,6.51-1.42,9.84-5.99,9.84s-5.99-3.33-5.99-9.84,1.42-9.83,5.99-9.83,5.99,3.33,5.99,9.83m25.73,9.39c3.14,0,4.31-1.62,4.31-3.53s-.96-3.79-4.21-3.79h-4.36v7.32h4.26Zm-22.18,40.15c3.15,0,4.31-1.61,4.31-3.53s-.96-3.78-4.21-3.78h-4.06v7.31h3.95Zm-79.62.15l3.35-13.52h-6.4l2.94,13.52h.1Zm107.17,0l3.19-13.52h-6.39l3.09,13.52h.11Zm26.43-79.39c-.4-1.51-1.16-3.93-2.63-7.16l-6.45-14.38h-2.43l-6.44,14.38c-1.42,3.23-2.24,5.65-2.63,7.16h-.1v-25.58h-4.11v30.67h5.63l8.89-20.28,8.88,20.28h5.64v-30.67h-4.11v25.58h-.1Z"/>
  <rect class="cls-1" x="2.08" y="340.71" width="820.73" height="234.42"/>
</svg>