<?xml version="1.0" encoding="UTF-8"?>
<svg id="Layer_1" data-name="Layer 1" xmlns="http://www.w3.org/2000/svg" xmlns:xlink="http://www.w3.org/1999/xlink" viewBox="0 0 824.88 680.31">
  <defs>
    <style>
      .cls-1 {
        fill: url(#linear-gradient);
      }

      .cls-2 {
        fill: #e41e26;
      }
    </style>
    <linearGradient id="linear-gradient" x1="412.44" y1="340.15" x2="412.44" y2="628.35" gradientUnits="userSpaceOnUse">
      <stop offset="0" stop-color="#fff" stop-opacity=".8"/>
      <stop offset=".05" stop-color="#fff" stop-opacity=".84"/>
      <stop offset=".19" stop-color="#fff" stop-opacity=".91"/>
      <stop offset=".36" stop-color="#fff" stop-opacity=".96"/>
      <stop offset=".57" stop-color="#fff" stop-opacity=".99"/>
      <stop offset="1" stop-color="#fff"/>
    </linearGradient>
  </defs>
  <g>
    <path class="cls-2" d="m651.52,341.24c-8.71,0-31.06.79-43.73,7.65-4.14,2.29-7.3,5.37-9.33,8.36-1.94,2.82-2.9,6.86-2.9,11.17v82.35c0,.97.79,1.67,1.67,1.67h33.52c.97,0,1.67-.79,1.67-1.67v-85.08c0-1.58.35-2.9,1.14-3.96.88-1.14,2.2-2.02,3.87-2.9,5.19-2.55,14.69-2.73,18.3-2.73h15.31c.97,0,1.67-.79,1.67-1.67v-11.53c0-.97-.79-1.67-1.67-1.67"/>
    <path class="cls-2" d="m188.63,341.68c-.97,0-1.67.79-1.67,1.67v93.97h-40.56c-.97,0-1.67.79-1.67,1.67v11.53c0,.97.79,1.67,1.67,1.67h118.08c.97,0,1.67-.79,1.67-1.67v-11.53c0-.97-.79-1.67-1.67-1.67h-40.65v-93.97c0-.97-.79-1.67-1.67-1.67"/>
    <g>
      <path class="cls-2" d="m299.49,341.68c-8.71-.09-31.67.62-44.34,6.86-4.14,2.02-7.3,4.75-9.33,7.48-1.94,2.55-2.9,6.16-2.9,10.12v32.73c0,3.96.97,7.57,2.9,10.12,2.11,2.82,5.19,5.54,9.33,7.57,12.67,6.16,35.63,6.86,44.34,6.86h14.25c8.71,0,31.67-.44,44.34-6.69,4.14-2.02,7.3-4.31,9.33-7.04,4.75-6.33,4.31-17.95,0-23.76-2.11-2.73-5.19-5.02-9.33-7.04-12.67-6.25-35.63-6.69-44.34-6.69h-33.35v-6.07c0-1.58.35-2.9,1.14-3.96.88-1.14,2.2-2.11,3.87-2.9,5.19-2.55,14.69-2.73,18.3-2.73h65.46c.97,0,1.67-.79,1.67-1.67v-11.53c0-.97-.79-1.67-1.67-1.67m-36.34,55.08v3.26c0,1.58-.35,2.9-1.14,3.96-.88,1.14-2.2,2.02-3.87,2.9-5.19,2.55-14.69,2.73-18.3,2.73h-5.9c-3.61,0-13.11-.18-18.3-2.73-1.76-.79-2.99-1.76-3.87-2.9-.7-1.06-1.14-2.38-1.14-3.96v-12.85h29.3c3.61,0,13.11.18,18.3,2.73,1.76.79,2.99,1.76,3.87,2.9.7,1.06,1.14,2.38,1.14,3.96h-.09Z"/>
      <path class="cls-2" d="m573.65,408.46c1.85-2.55,2.82-6.25,2.82-10.21v-32.73c0-3.96-.97-7.57-2.82-10.12-2.11-2.73-5.19-5.46-9.33-7.48-12.67-6.16-35.63-6.86-44.34-6.86h-14.34c-8.71,0-31.67.44-44.34,6.69-4.14,2.02-7.3,4.31-9.33,7.04-4.66,6.25-4.66,18.04,0,24.28,2.11,2.73,5.19,5.02,9.33,7.04,12.67,6.25,35.63,6.69,44.34,6.69h33.43v5.54c0,1.58-.35,2.9-1.14,3.96-.88,1.14-2.2,2.11-3.87,2.9-5.19,2.55-14.69,2.73-18.3,2.73h-52.97c-.97,0-1.67.79-1.67,1.67v11.53c0,.97.79,1.67,1.67,1.67h57.19c8.71.09,31.67-.62,44.34-6.86,4.14-2.02,7.3-4.75,9.33-7.48m-34.49-43.9v13.37h-29.21c-3.61,0-13.11-.18-18.3-2.73-1.76-.79-2.99-1.76-3.87-2.9-.7-1.06-1.14-2.38-1.14-3.96v-3.78c0-1.58.35-2.9,1.14-3.96.88-1.14,2.2-2.11,3.87-2.9,5.19-2.55,14.69-2.73,18.3-2.73h5.9c3.61,0,13.11.18,18.3,2.73,1.76.79,2.99,1.76,3.87,2.9.7,1.06,1.14,2.38,1.14,3.96h0Z"/>
    </g>
    <path class="cls-2" d="m652.05,447.08h1.23c.79,0,1.32.09,1.32.97,0,.79-.62.79-1.23.79h-1.32v-1.76m.09-.97v-2.55h-1.14v6.25h2.73c1.32,0,2.02-.7,2.02-1.85,0-.88-.53-1.67-1.67-1.76l1.76-2.64h-1.32l-1.67,2.55h-.79.09Z"/>
    <path class="cls-2" d="m653.1,452.54c3.26,0,5.9-2.64,5.9-5.9s-2.64-5.9-5.9-5.9-5.9,2.64-5.9,5.9,2.64,5.9,5.9,5.9m0-10.56c2.64,0,4.75,2.11,4.75,4.75s-2.11,4.75-4.75,4.75-4.75-2.11-4.75-4.75,2.11-4.75,4.75-4.75"/>
    <path class="cls-2" d="m386.42,424.12c0,5.37,1.06,9.41,2.9,12.23,2.11,3.08,5.19,6.07,9.33,8.36,12.67,6.95,35.63,7.74,44.34,7.65h18.92c.97,0,1.67-.79,1.67-1.67v-11.53c0-.97-.79-1.67-1.67-1.67h-14.69c-3.61,0-13.73-.18-18.92-2.73-1.76-.79-2.99-1.76-3.87-2.9-.7-1.06-1.14-2.38-1.14-3.96v-5.1h20.5c.97,0,1.67-.79,1.67-1.67v-11.53c0-.88-.79-1.67-1.67-1.67h-20.5v-64.58c0-.97-.79-1.67-1.67-1.67h-33.43c-.97,0-1.67.79-1.67,1.67"/>
  </g>
  <rect class="cls-1" y="340.15" width="824.88" height="288.2"/>
  <g>
    <path class="cls-2" d="m671.05,340.07c.88,0,1.67-.7,1.67-1.67v-11.53c0-.88-.7-1.67-1.67-1.67h-15.31c-3.61,0-13.11-.18-18.3-2.73-1.67-.88-2.99-1.76-3.87-2.9-.79-1.06-1.14-2.38-1.14-3.96v-85.08c0-.88-.7-1.67-1.67-1.67h-33.52c-.88,0-1.67.7-1.67,1.67v82.35c0,4.31.97,8.36,2.9,11.17,2.02,2.99,5.19,6.07,9.33,8.36,12.67,6.86,35.02,7.65,43.73,7.65"/>
    <path class="cls-2" d="m222.15,339.63c.88,0,1.67-.7,1.67-1.67v-93.97h40.65c.88,0,1.67-.7,1.67-1.67v-11.53c0-.88-.7-1.67-1.67-1.67h-118.08c-.88,0-1.67.7-1.67,1.67v11.53c0,.88.7,1.67,1.67,1.67h40.56v93.97c0,.88.7,1.67,1.67,1.67"/>
    <g>
      <path class="cls-2" d="m369.17,339.63c.88,0,1.67-.7,1.67-1.67v-11.53c0-.88-.7-1.67-1.67-1.67h-65.46c-3.61,0-13.11-.18-18.3-2.73-1.67-.79-2.99-1.76-3.87-2.9-.79-1.06-1.14-2.38-1.14-3.96v-6.07h33.35c8.71,0,31.67-.44,44.34-6.69,4.14-2.02,7.21-4.31,9.33-7.04,4.31-5.81,4.75-17.42,0-23.76-2.02-2.73-5.19-5.02-9.33-7.04-12.67-6.25-35.63-6.69-44.34-6.69h-14.25c-8.71,0-31.67.7-44.34,6.86-4.14,2.02-7.21,4.75-9.33,7.57-1.94,2.55-2.9,6.16-2.9,10.12v32.73c0,3.96.97,7.57,2.9,10.12,2.02,2.73,5.19,5.46,9.33,7.48,12.67,6.25,35.63,6.95,44.34,6.86m33.43-55.08c0,1.58-.44,2.9-1.14,3.96-.88,1.14-2.11,2.11-3.87,2.9-5.19,2.55-14.69,2.73-18.3,2.73h-29.3v-12.85c0-1.58.44-2.9,1.14-3.96.88-1.14,2.11-2.11,3.87-2.9,5.19-2.55,14.69-2.73,18.3-2.73h5.9c3.61,0,13.11.18,18.3,2.73,1.67.88,2.99,1.76,3.87,2.9.79,1.06,1.14,2.38,1.14,3.96v3.26h.09Z"/>
      <path class="cls-2" d="m573.65,272.84c-2.02-2.73-5.19-5.46-9.33-7.48-12.67-6.25-35.63-6.95-44.34-6.86h-57.19c-.88,0-1.67.7-1.67,1.67v11.53c0,.88.7,1.67,1.67,1.67h52.97c3.61,0,13.11.18,18.3,2.73,1.67.79,2.99,1.76,3.87,2.9.79,1.06,1.14,2.38,1.14,3.96v5.54h-33.43c-8.71,0-31.67.44-44.34,6.69-4.14,2.02-7.21,4.31-9.33,7.04-4.66,6.25-4.66,18.04,0,24.28,2.02,2.73,5.19,5.02,9.33,7.04,12.67,6.25,35.63,6.69,44.34,6.69h14.34c8.71,0,31.67-.7,44.34-6.86,4.14-2.02,7.21-4.75,9.33-7.48,1.85-2.55,2.82-6.16,2.82-10.12v-32.73c0-3.96-.97-7.65-2.82-10.21m-34.49,43.9c0,1.58-.44,2.9-1.14,3.96-.88,1.14-2.11,2.11-3.87,2.9-5.19,2.55-14.69,2.73-18.3,2.73h-5.9c-3.61,0-13.11-.18-18.3-2.73-1.67-.79-2.99-1.76-3.87-2.9-.79-1.06-1.14-2.38-1.14-3.96v-3.78c0-1.58.44-2.9,1.14-3.96.88-1.14,2.11-2.11,3.87-2.9,5.19-2.55,14.69-2.73,18.3-2.73h29.21v13.37h0Z"/>
    </g>
    <path class="cls-2" d="m652.05,234.22v-1.76h1.32c.62,0,1.23,0,1.23.79,0,.88-.53.97-1.32.97h-1.23m0,.97h.79l1.67,2.55h1.32l-1.76-2.64c1.14-.09,1.67-.88,1.67-1.76,0-1.14-.7-1.85-2.02-1.85h-2.73v6.25h1.14v-2.55h-.09Z"/>
    <path class="cls-2" d="m653.1,228.76c-3.26,0-5.9,2.64-5.9,5.9s2.64,5.9,5.9,5.9,5.9-2.64,5.9-5.9-2.64-5.9-5.9-5.9m0,10.56c-2.64,0-4.75-2.11-4.75-4.75s2.11-4.75,4.75-4.75,4.75,2.11,4.75,4.75-2.11,4.75-4.75,4.75"/>
    <path class="cls-2" d="m386.51,337.95c0,.88.7,1.67,1.67,1.67h33.43c.88,0,1.67-.7,1.67-1.67v-64.58h20.5c.88,0,1.67-.79,1.67-1.67v-11.53c0-.88-.7-1.67-1.67-1.67h-20.5v-5.1c0-1.58.44-2.9,1.14-3.96.88-1.14,2.11-2.11,3.87-2.9,5.19-2.55,15.31-2.73,18.92-2.73h14.69c.88,0,1.67-.7,1.67-1.67v-11.53c0-.88-.7-1.67-1.67-1.67h-18.92c-8.71-.09-31.67.7-44.34,7.65-4.14,2.29-7.21,5.28-9.33,8.36-1.85,2.82-2.9,6.86-2.9,12.23"/>
  </g>
</svg>