<?xml version="1.0" encoding="UTF-8"?>
<svg id="Layer_1" data-name="Layer 1" xmlns="http://www.w3.org/2000/svg" xmlns:xlink="http://www.w3.org/1999/xlink" viewBox="0 0 824.88 680.31">
  <defs>
    <style>
      .cls-1 {
        fill: url(#linear-gradient);
      }

      .cls-2 {
        fill: #f04b40;
      }

      .cls-3 {
        fill: #524d49;
      }
    </style>
    <linearGradient id="linear-gradient" x1="412.44" y1="344.53" x2="412.44" y2="656.64" gradientUnits="userSpaceOnUse">
      <stop offset="0" stop-color="#fff" stop-opacity=".8"/>
      <stop offset=".06" stop-color="#fff" stop-opacity=".85"/>
      <stop offset=".17" stop-color="#fff" stop-opacity=".92"/>
      <stop offset=".3" stop-color="#fff" stop-opacity=".97"/>
      <stop offset=".49" stop-color="#fff" stop-opacity=".99"/>
      <stop offset="1" stop-color="#fff"/>
    </linearGradient>
  </defs>
  <g>
    <path class="cls-2" d="m171.46,347.39c-10.93,0-21.85,0-32.78,0-3.96,0-7.41,2.56-8.59,6.27-.37,1.18-.41,2.38-.41,3.6,0,12.17,0,24.34,0,36.51,0,6.1.03,12.21.02,18.31,0,2.51.92,4.64,2.47,6.56,1.51,1.87,3.33,3.42,5.06,5.07,5.43,5.19,10.87,10.35,16.31,15.52,2.91,2.77,5.8,5.56,8.74,8.3,4.49,4.18,11.36,4.11,15.76-.13.11-.11.21-.22.32-.32.34-.29.31-.54,0-.84-.91-.85-1.81-1.73-2.72-2.59-7.18-6.81-14.36-13.61-21.53-20.43-3.3-3.13-6.57-6.3-9.87-9.42-1.7-1.61-2.52-3.54-2.52-5.87,0-15.2.02-30.41-.02-45.61,0-1.65,1.34-2.96,3.02-2.94,7.02.06,14.04.02,21.05.02,10.74,0,21.47,0,32.21,0,.69,0,1.36,0,1.97.41.74.49,1.2,1.15,1.27,2.04.03.38.02.76.02,1.14,0,12.44,0,24.87.02,37.31,0,.78-.25,1.35-.74,1.93-4.83,5.7-9.64,11.41-14.45,17.12-.59.7-.61.71-1.29.07-4.3-4.06-8.6-8.12-12.89-12.19-1.54-1.46-3.03-2.98-4.59-4.41-1.23-1.13-1.78-2.45-1.76-4.12.05-4.78.02-9.55.02-14.33,0-.23,0-.45.01-.68,0-.27.16-.41.43-.41.19,0,.38,0,.57,0,3.3,0,6.6,0,9.9,0,.93,0,.95.01.95.93,0,4.06,0,8.11,0,12.17,0,.38-.01.76.04,1.13.15,1.12.89,1.84,2.02,1.97.19.02.38.03.57.03,2.81,0,5.61,0,8.42,0,.87,0,.89-.02.89-.87,0-8,.01-16,0-24,0-2.08-1.41-3.39-3.59-3.39-5.88,0-11.76,0-17.64,0-3.68,0-7.36,0-11.04,0-.95,0-1.79.25-2.49.92-.7.66-1.04,1.46-1.04,2.43,0,9.55,0,19.11,0,28.66,0,1.88.72,3.47,1.96,4.83,1.51,1.66,3.19,3.13,4.81,4.68,4.3,4.12,8.62,8.21,12.94,12.31,4.17,3.97,8.35,7.94,12.52,11.92.61.58.62.58,1.28-.21,4.13-4.89,8.27-9.79,12.4-14.69,3.99-4.72,7.95-9.47,11.96-14.16,1.26-1.47,1.81-3.1,1.81-5-.01-15.51,0-31.01,0-46.52,0-5.05-3.97-9.02-9.02-9.03-10.93-.01-21.85,0-32.78,0Z"/>
    <path class="cls-3" d="m240.53,419.52c0,7.43,0,14.86,0,22.29,0,2.91-1.17,5.2-3.61,6.81-2.12,1.4-4.51,1.95-7.01,2.02-1.64.05-1.4.14-1.4-1.37,0-23.47,0-46.93,0-70.4,0-1.02.06-2.04.11-3.06.27-4.71.98-9.34,2.6-13.79,2.99-8.23,8.66-13.43,17.26-15.35,4.3-.96,8.64-1.11,13-.61,4.31.5,8.36,1.82,12,4.23,4.44,2.94,7.5,7.01,9.66,11.81,2.39,5.32,3.54,10.95,4.02,16.71.54,6.4.5,12.79-.39,19.16-.59,4.22-1.61,8.33-3.39,12.22-2.94,6.42-7.58,10.99-14.4,13.15-5.08,1.61-10.27,1.95-15.51,1.06-4.68-.79-8.92-2.64-12.47-5.9-.1-.09-.19-.25-.49-.15v1.16Zm.04-22.08c.02,1.86.24,3.7.65,5.52.56,2.49,1.81,4.58,3.64,6.31,3.62,3.43,7.93,5.24,12.93,5.31,2.36.03,4.69-.3,6.91-1.16,3.75-1.45,6.23-4.2,7.93-7.74,1.34-2.79,2.08-5.77,2.51-8.82.99-7.13.9-14.28-.02-21.41-.47-3.66-1.35-7.21-3.03-10.54-2.7-5.34-7.09-8.14-12.98-8.64-2.35-.2-4.69-.13-7.02.35-4.01.83-6.82,3.13-8.58,6.77-1.19,2.44-1.83,5.05-2.26,7.71-.65,4.05-.76,8.14-.72,12.24.02,1.52,0,3.03,0,4.55.01,0,.02,0,.04,0,0,3.18-.02,6.37,0,9.55Z"/>
    <path class="cls-3" d="m400.11,419.57c0,7.39,0,14.79,0,22.18,0,3.46-1.58,5.92-4.63,7.48-1.86.94-3.85,1.38-5.92,1.43-1.72.04-1.46.14-1.46-1.44,0-22.6,0-45.19,0-67.79,0-3.07.08-6.14.44-9.19.51-4.39,1.43-8.67,3.31-12.7,2.93-6.26,7.68-10.46,14.33-12.37,6.13-1.76,12.35-1.88,18.56-.45,6.53,1.51,11.67,5.1,15.42,10.67,1.94,2.89,3.31,6.04,4.34,9.34,1.48,4.73,2.16,9.6,2.43,14.53.31,5.61.21,11.21-.58,16.78-.68,4.79-1.86,9.44-4.15,13.74-2.89,5.45-7.14,9.34-13.03,11.37-4.18,1.44-8.49,1.86-12.88,1.62-4.24-.23-8.2-1.39-11.89-3.47-1.49-.84-2.81-1.91-4.29-3.2,0,.66,0,1.07,0,1.48Zm.05-22.16c.02,1.78.24,3.55.61,5.29.6,2.81,2.02,5.13,4.12,7.04,3.74,3.41,8.13,5.23,13.23,5.09,3.77-.1,7.27-1.06,10.17-3.63,2.36-2.09,3.84-4.75,4.86-7.7,1.31-3.79,1.87-7.72,2.11-11.7.36-5.95.21-11.89-.77-17.78-.62-3.75-1.61-7.4-3.68-10.67-2.51-3.96-6.11-6.22-10.72-6.91-2.8-.41-5.59-.38-8.37.17-4.2.83-7.06,3.31-8.8,7.15-1.1,2.43-1.72,5.01-2.12,7.64-.5,3.34-.71,6.7-.7,10.08.01,2.12,0,4.25,0,6.37.01,0,.03,0,.04,0,0,3.18-.02,6.37,0,9.55Z"/>
    <path class="cls-3" d="m366.67,353.21c.66-2.76,2.35-4.51,5.1-5.23,1.59-.42,3.2-.58,4.84-.6,1.32-.01,1.21-.13,1.21,1.23,0,17.36,0,34.73,0,52.09,0,1.86-.11,3.71-.42,5.54-1.13,6.75-4.63,11.86-10.67,15.11-5.69,3.07-11.82,3.97-18.18,3.27-6.56-.72-12.29-3.4-17.29-7.68-1.79-1.53-3.41-3.23-4.84-5.1-.32-.42-.31-.7.13-1.03.92-.68,1.87-1.3,2.92-1.74,3.19-1.32,6.28-1.15,9.24.71.55.34,1.08.71,1.62,1.06,4.2,2.7,8.75,4.11,13.79,3.64,2.26-.21,4.41-.75,6.33-2,3.9-2.54,5.45-6.34,5.75-10.8.06-.95.02-.97-.92-1.2-5.55-1.37-11.05-2.93-16.5-4.68-5.28-1.7-10.42-3.72-15.1-6.76-3.28-2.13-6.15-4.68-8.29-7.98-3.63-5.59-4.44-11.73-3.03-18.11,1.74-7.87,6.52-13.18,14.24-15.71,3.16-1.04,6.43-1.41,9.74-1.45,7.64-.08,14.17,2.5,19.48,8.04.15.16.26.38.57.43.09-.35.2-.7.28-1.05Zm-.48,34.32c-.06-4.01.17-8.03-.2-12.03-.32-3.37-.96-6.67-2.44-9.75-2.56-5.33-6.82-8.37-12.63-9.26-3.25-.5-6.49-.48-9.69.39-5.61,1.53-8.08,5.46-8.48,10.63-.36,4.61,1.5,8.24,4.91,11.18,2.52,2.17,5.37,3.8,8.43,5.08,5.81,2.43,11.82,4.22,17.88,5.88.69.19,1.35.48,2.22.47,0-.93.01-1.76,0-2.6Z"/>
    <path class="cls-3" d="m684.2,352.74c.65-2.29,2.09-3.81,4.35-4.58,1.71-.58,3.48-.75,5.26-.78,1.57-.02,1.38-.22,1.38,1.38,0,17.18,0,34.35,0,51.53,0,1.7-.04,3.41-.27,5.1-.91,6.66-4.02,11.96-9.87,15.42-6.51,3.85-13.59,4.75-20.97,3.53-5.91-.98-11.05-3.62-15.57-7.51-1.73-1.49-3.3-3.13-4.67-4.95-.22-.29-.53-.56-.05-.94,2.72-2.15,5.73-3.21,9.22-2.48,1.68.35,3.06,1.29,4.45,2.21,4.28,2.82,8.91,4.3,14.08,3.8,1.94-.19,3.82-.6,5.54-1.55,4.2-2.33,6.04-6.1,6.46-10.71.14-1.5.09-1.48-1.36-1.85-6.93-1.78-13.84-3.65-20.56-6.15-4.56-1.7-8.93-3.79-12.82-6.77-3.11-2.39-5.69-5.24-7.39-8.8-2.64-5.55-3.01-11.32-1.29-17.17,2.17-7.41,7.06-12.21,14.47-14.4,4.12-1.22,8.33-1.53,12.6-1.11,5.45.54,10.24,2.61,14.33,6.27.73.65,1.44,1.34,2.27,2.11.16-.64.27-1.12.41-1.59Zm-.63,36.6c-.02-4.02.05-8.04-.07-12.05-.12-3.92-.81-7.76-2.47-11.36-2.52-5.47-6.84-8.54-12.73-9.46-2.86-.45-5.74-.46-8.59.14-5.99,1.27-9.13,4.9-9.56,11.04-.31,4.43,1.45,7.95,4.7,10.83,2.55,2.26,5.45,3.95,8.59,5.26,5.6,2.34,11.39,4.1,17.24,5.71.91.25,1.8.58,2.9.69,0-.35,0-.57,0-.8Z"/>
    <path class="cls-3" d="m496.5,354.12c.1-.36.2-.73.29-1.09.62-2.59,2.24-4.22,4.79-4.98,1.61-.48,3.27-.64,4.94-.66,1.47-.02,1.32-.2,1.32,1.34,0,17.52,0,35.03,0,52.55,0,1.44-.06,2.88-.27,4.31-1.03,7.12-4.58,12.55-10.99,15.9-6.26,3.27-12.96,4.05-19.89,2.87-5.78-.99-10.84-3.53-15.29-7.31-1.71-1.45-3.26-3.06-4.65-4.82-.75-.94-.74-.95.19-1.63.7-.52,1.45-.97,2.24-1.34,3.32-1.5,6.54-1.37,9.64.6.64.41,1.27.82,1.92,1.22,4.1,2.58,8.52,3.78,13.4,3.44,6.96-.49,12.04-5.79,12.08-12.79,0-1,0-1.01-1-1.26-4.78-1.17-9.52-2.52-14.23-3.96-5.08-1.56-10.07-3.33-14.73-5.92-3.64-2.02-6.98-4.45-9.55-7.77-4.99-6.44-6.07-13.67-3.89-21.39,1.79-6.36,5.79-10.92,11.93-13.46,4.83-2,9.89-2.49,15.06-2,5.75.54,10.72,2.83,14.94,6.76.54.5.97,1.14,1.6,1.5.1-.06.15-.07.16-.1Zm-.3,35.44c-.01-4.21.06-8.42-.06-12.62-.12-4.04-.92-7.98-2.76-11.63-2.56-5.09-6.77-7.94-12.34-8.81-3.6-.57-7.19-.53-10.68.66-4.42,1.52-6.79,4.69-7.45,9.28-.79,5.5,1.43,9.64,5.63,12.95,2.95,2.33,6.28,3.93,9.76,5.26,5.63,2.16,11.41,3.84,17.22,5.41.18.05.37.05.53.06.16-.19.14-.38.14-.57Z"/>
    <path class="cls-3" d="m529.51,418.51c1.38.7,2.72,1.42,4.08,2.06,4.1,1.92,8.34,3.43,12.85,4.01,5.01.65,9.92.22,14.6-1.79,5.18-2.22,8.36-6.23,10-11.55.82-2.66,1.21-5.39,1.21-8.18,0-18.12,0-36.24,0-54.36,0-1.52.14-1.33-1.34-1.33-1.25,0-2.5.13-3.73.38-3.84.76-5.97,2.98-6.59,6.83-.23,1.43-.3,2.86-.3,4.3,0,13.87,0,27.75-.01,41.62,0,1.97-.22,3.92-.51,5.88-.72,4.83-4.77,7.62-9.14,8.09-2.63.28-5.12-.25-7.58-1.07-4.3-1.43-8.3-3.5-12.27-5.63-.46-.25-.69-.54-.63-1.07.03-.26,0-.53,0-.8,0-19.07,0-38.13,0-57.2,0-1.53.14-1.34-1.32-1.34-3.19,0-6.37,0-9.56,0-1.05,0-1.06,0-1.06,1.03,0,4.97,0,9.93,0,14.9,0,20.05,0,40.1,0,60.16,0,1.45-.31,1.42,1.41,1.36,1.67-.06,3.31-.35,4.87-1.02,2.22-.96,3.89-2.46,4.75-4.77.07-.17.16-.33.26-.53Z"/>
    <path class="cls-3" d="m582.55,398.89c0,14.17,0,25.81,0,37.45,0,.87.05,1.74.22,2.6.46,2.21,1.72,3.84,3.63,4.99,2.28,1.38,4.8,1.78,7.4,1.9.52.02.8-.12.74-.69-.03-.26,0-.53,0-.8v-20.36c0-.34,0-.68,0-1.02,0-1.11,0-1.12,1.12-1.12,4.85,0,9.71,0,14.56,0,.27,0,.53-.02.8,0,.62.06.76-.23.75-.81-.02-2.8,0-5.61-.01-8.42,0-1.12,0-1.12-1.1-1.12-4.85,0-9.71,0-14.56,0-1.81,0-1.55.26-1.55-1.57,0-15.12,0-30.25,0-45.37,0-1.63.15-3.25.61-4.83.52-1.79,1.67-2.92,3.43-3.48,2.11-.67,4.26-.65,6.42-.38,1.96.24,3.9.57,5.83.98.86.18.92.13.93-.72,0-2.54-.02-5.08.02-7.62.01-.66-.22-.94-.82-1.13-2.43-.77-4.9-1.33-7.45-1.49-3.45-.22-6.89-.13-10.27.74-5.43,1.39-8.67,4.85-9.87,10.29-.5,2.26-.69,4.56-.73,6.88-.21,12.54,0,25.09-.09,35.1Z"/>
    <path class="cls-3" d="m294.8,375.16c0,8.68-.02,17.36.01,26.04.01,2.96.29,5.9,1.06,8.77.97,3.63,2.67,6.84,5.49,9.38,2.21,1.99,4.83,3.25,7.66,4.09,5.56,1.64,11.19,1.93,16.84.57,2.22-.53,1.9-.36.91-2.17-1.1-2.01-2.52-3.78-4.31-5.24-1.77-1.44-3.75-2.4-6.06-2.63-.67-.07-1.34-.24-2-.39-3.74-.85-6-3.2-6.92-6.88-.54-2.15-.68-4.34-.68-6.54,0-17.13,0-34.27,0-51.4,0-1.59.2-1.38-1.39-1.38-3.19-.01-6.37,0-9.56,0-1.04,0-1.05,0-1.05,1.06,0,8.91,0,17.82,0,26.72Z"/>
    <path class="cls-3" d="m619.52,384.69c0,11.94,0,23.87,0,35.81,0,.11,0,.23,0,.34.01.98.01.99,1,.99,3.34,0,6.67,0,10.01,0,.93,0,.93-.01.94-.93,0-.68,0-1.36,0-2.05,0-23.38,0-46.76,0-70.14,0-.11,0-.23,0-.34-.01-.98-.01-.99-1-.99-3.26,0-6.52,0-9.78,0-1.21,0-1.17-.14-1.17,1.16,0,12.05,0,24.1,0,36.15Z"/>
    <path class="cls-3" d="m619.52,439.83c0,1.74.02,3.49-.01,5.23-.01.6.2.78.79.77,3.49-.02,6.97-.02,10.46,0,.55,0,.73-.19.72-.72-.01-3.56-.02-7.12,0-10.68,0-.56-.2-.71-.73-.71-3.49.02-6.97.02-10.46,0-.58,0-.79.17-.78.77.03,1.78.01,3.56.01,5.34Z"/>
  </g>
  <g>
    <path class="cls-2" d="m171.46,344.52c-10.93,0-21.85,0-32.78,0-3.96,0-7.41-2.56-8.59-6.27-.37-1.18-.41-2.38-.41-3.6,0-12.17,0-24.34,0-36.51,0-6.1.03-12.21.02-18.31,0-2.51.92-4.64,2.47-6.56,1.51-1.87,3.33-3.42,5.06-5.07,5.43-5.19,10.87-10.35,16.31-15.52,2.91-2.77,5.8-5.56,8.74-8.3,4.49-4.18,11.36-4.11,15.76.13.11.11.21.22.32.32.34.29.31.54,0,.84-.91.85-1.81,1.73-2.72,2.59-7.18,6.81-14.36,13.61-21.53,20.43-3.3,3.13-6.57,6.3-9.87,9.42-1.7,1.61-2.52,3.54-2.52,5.87,0,15.2.02,30.41-.02,45.61,0,1.65,1.34,2.96,3.02,2.94,7.02-.06,14.04-.02,21.05-.02,10.74,0,21.47,0,32.21,0,.69,0,1.36,0,1.97-.41.74-.49,1.2-1.15,1.27-2.04.03-.38.02-.76.02-1.14,0-12.44,0-24.87.02-37.31,0-.78-.25-1.35-.74-1.93-4.83-5.7-9.64-11.41-14.45-17.12-.59-.7-.61-.71-1.29-.07-4.3,4.06-8.6,8.12-12.89,12.19-1.54,1.46-3.03,2.98-4.59,4.41-1.23,1.13-1.78,2.45-1.76,4.12.05,4.78.02,9.55.02,14.33,0,.23,0,.45.01.68,0,.27.16.41.43.41.19,0,.38,0,.57,0,3.3,0,6.6,0,9.9,0,.93,0,.95-.01.95-.93,0-4.06,0-8.11,0-12.17,0-.38-.01-.76.04-1.13.15-1.12.89-1.84,2.02-1.97.19-.02.38-.03.57-.03,2.81,0,5.61,0,8.42,0,.87,0,.89.02.89.87,0,8,.01,16,0,24,0,2.08-1.41,3.39-3.59,3.39-5.88,0-11.76,0-17.64,0-3.68,0-7.36,0-11.04,0-.95,0-1.79-.25-2.49-.92-.7-.66-1.04-1.46-1.04-2.43,0-9.55,0-19.11,0-28.66,0-1.88.72-3.47,1.96-4.83,1.51-1.66,3.19-3.13,4.81-4.68,4.3-4.12,8.62-8.21,12.94-12.31,4.17-3.97,8.35-7.94,12.52-11.92.61-.58.62-.58,1.28.21,4.13,4.89,8.27,9.79,12.4,14.69,3.99,4.72,7.95,9.47,11.96,14.16,1.26,1.47,1.81,3.1,1.81,5-.01,15.51,0,31.01,0,46.52,0,5.05-3.97,9.02-9.02,9.03-10.93.01-21.85,0-32.78,0Z"/>
    <path class="cls-3" d="m240.53,273.55c.3.11.39-.05.49-.15,3.55-3.25,7.79-5.1,12.47-5.9,5.23-.89,10.43-.55,15.51,1.06,6.82,2.16,11.46,6.73,14.4,13.15,1.78,3.89,2.79,8,3.39,12.22.9,6.37.94,12.77.39,19.16-.49,5.76-1.63,11.4-4.02,16.71-2.16,4.8-5.22,8.86-9.66,11.81-3.65,2.42-7.69,3.73-12,4.23-4.36.51-8.7.35-13-.61-8.6-1.92-14.27-7.13-17.26-15.35-1.62-4.46-2.33-9.08-2.6-13.79-.06-1.02-.11-2.04-.11-3.06,0-23.47,0-46.93,0-70.4,0-1.51-.24-1.42,1.4-1.37,2.5.07,4.88.63,7.01,2.02,2.45,1.61,3.61,3.9,3.61,6.81,0,7.43,0,14.86,0,22.29v1.16Zm.04,30.46s-.02,0-.04,0c0,1.52.01,3.03,0,4.55-.04,4.1.07,8.18.72,12.24.43,2.67,1.07,5.27,2.26,7.71,1.77,3.64,4.58,5.94,8.58,6.77,2.33.48,4.67.55,7.02.35,5.9-.5,10.28-3.3,12.98-8.64,1.68-3.32,2.56-6.88,3.03-10.54.92-7.13,1.01-14.27.02-21.41-.42-3.05-1.17-6.02-2.51-8.82-1.7-3.54-4.19-6.29-7.93-7.74-2.22-.86-4.55-1.19-6.91-1.16-5,.07-9.31,1.88-12.93,5.31-1.83,1.73-3.08,3.82-3.64,6.31-.41,1.82-.64,3.66-.65,5.52-.03,3.18,0,6.37,0,9.55Z"/>
    <path class="cls-3" d="m400.11,273.82c1.48-1.29,2.8-2.36,4.29-3.2,3.69-2.08,7.65-3.25,11.89-3.47,4.4-.24,8.7.18,12.88,1.62,5.89,2.03,10.14,5.92,13.03,11.37,2.28,4.3,3.47,8.94,4.15,13.74.79,5.57.88,11.17.58,16.78-.27,4.93-.96,9.8-2.43,14.53-1.03,3.31-2.4,6.46-4.34,9.34-3.74,5.57-8.89,9.15-15.42,10.67-6.21,1.44-12.43,1.32-18.56-.45-6.65-1.91-11.4-6.12-14.33-12.37-1.88-4.03-2.81-8.31-3.31-12.7-.35-3.05-.44-6.12-.44-9.19.01-22.6,0-45.19,0-67.79,0-1.57-.26-1.48,1.46-1.44,2.07.05,4.06.48,5.92,1.43,3.05,1.55,4.64,4.02,4.63,7.48,0,7.39,0,14.79,0,22.18,0,.41,0,.82,0,1.48Zm.04,30.23s-.03,0-.04,0c0,2.12,0,4.25,0,6.37-.02,3.38.19,6.74.7,10.08.4,2.63,1.01,5.21,2.12,7.64,1.74,3.84,4.6,6.32,8.8,7.15,2.78.55,5.57.59,8.37.17,4.61-.68,8.21-2.95,10.72-6.91,2.07-3.27,3.06-6.91,3.68-10.67.98-5.89,1.13-11.83.77-17.78-.24-3.98-.8-7.91-2.11-11.7-1.02-2.94-2.5-5.61-4.86-7.7-2.9-2.56-6.4-3.52-10.17-3.63-5.11-.14-9.49,1.68-13.23,5.09-2.1,1.91-3.52,4.24-4.12,7.04-.37,1.75-.59,3.51-.61,5.29-.03,3.18,0,6.37,0,9.55Z"/>
    <path class="cls-3" d="m366.39,337.64c-.31.05-.42.27-.57.43-5.31,5.54-11.84,8.13-19.48,8.04-3.32-.04-6.58-.41-9.74-1.45-7.72-2.54-12.5-7.84-14.24-15.71-1.41-6.38-.6-12.52,3.03-18.11,2.14-3.3,5.02-5.85,8.29-7.98,4.68-3.04,9.82-5.06,15.1-6.76,5.44-1.75,10.94-3.31,16.5-4.68.94-.23.98-.25.92-1.2-.29-4.46-1.85-8.26-5.75-10.8-1.92-1.25-4.07-1.78-6.33-2-5.04-.48-9.59.94-13.79,3.64-.54.35-1.07.71-1.62,1.06-2.95,1.86-6.04,2.02-9.24.71-1.06-.44-2.01-1.06-2.92-1.74-.44-.32-.45-.61-.13-1.03,1.43-1.87,3.05-3.57,4.84-5.1,5-4.27,10.74-6.95,17.29-7.68,6.36-.7,12.49.2,18.18,3.27,6.04,3.26,9.54,8.36,10.67,15.11.31,1.84.42,3.69.42,5.54,0,17.36,0,34.73,0,52.09,0,1.36.12,1.24-1.21,1.23-1.63-.01-3.25-.18-4.84-.6-2.76-.72-4.45-2.47-5.1-5.23-.08-.36-.19-.71-.28-1.05Zm-.19-35.86c-.87,0-1.54.28-2.22.47-6.06,1.66-12.07,3.46-17.88,5.88-3.06,1.28-5.91,2.91-8.43,5.08-3.41,2.94-5.27,6.58-4.91,11.18.4,5.17,2.87,9.1,8.48,10.63,3.2.87,6.44.89,9.69.39,5.8-.89,10.07-3.93,12.63-9.26,1.48-3.08,2.12-6.38,2.44-9.75.38-4,.15-8.02.2-12.03.01-.83,0-1.66,0-2.6Z"/>
    <path class="cls-3" d="m683.79,337.57c-.83.77-1.53,1.45-2.27,2.11-4.09,3.65-8.87,5.73-14.33,6.27-4.27.42-8.48.11-12.6-1.11-7.41-2.19-12.3-6.99-14.47-14.4-1.72-5.85-1.35-11.62,1.29-17.17,1.69-3.56,4.27-6.41,7.39-8.8,3.89-2.98,8.25-5.08,12.82-6.77,6.72-2.5,13.63-4.37,20.56-6.15,1.45-.37,1.5-.35,1.36-1.85-.42-4.6-2.26-8.38-6.46-10.71-1.72-.95-3.6-1.37-5.54-1.55-5.17-.5-9.81.99-14.08,3.8-1.39.92-2.78,1.86-4.45,2.21-3.49.72-6.5-.33-9.22-2.48-.48-.38-.16-.65.05-.94,1.38-1.82,2.95-3.47,4.67-4.95,4.52-3.89,9.67-6.53,15.57-7.51,7.37-1.22,14.46-.32,20.97,3.53,5.85,3.46,8.96,8.75,9.87,15.42.23,1.7.27,3.4.27,5.1,0,17.18,0,34.35,0,51.53,0,1.61.19,1.41-1.38,1.38-1.78-.03-3.56-.2-5.26-.78-2.25-.76-3.7-2.29-4.35-4.58-.13-.47-.24-.94-.41-1.59Zm-.22-35.81c-1.1.11-1.99.44-2.9.69-5.84,1.61-11.64,3.37-17.24,5.71-3.13,1.31-6.04,2.99-8.59,5.26-3.25,2.88-5.01,6.4-4.7,10.83.43,6.14,3.57,9.77,9.56,11.04,2.86.6,5.73.59,8.59.14,5.89-.92,10.21-3.99,12.73-9.46,1.66-3.6,2.36-7.44,2.47-11.36.12-4.01.05-8.03.07-12.05,0-.22,0-.44,0-.8Z"/>
    <path class="cls-3" d="m496.34,337.69c-.63.37-1.06,1-1.6,1.5-4.23,3.93-9.19,6.21-14.94,6.76-5.17.49-10.23,0-15.06-2-6.15-2.54-10.14-7.1-11.93-13.46-2.18-7.72-1.1-14.95,3.89-21.39,2.57-3.32,5.91-5.75,9.55-7.77,4.66-2.59,9.65-4.36,14.73-5.92,4.71-1.44,9.44-2.8,14.23-3.96,1.01-.25,1-.26,1-1.26-.04-7-5.12-12.3-12.08-12.79-4.88-.35-9.3.86-13.4,3.44-.64.4-1.28.82-1.92,1.22-3.1,1.98-6.32,2.1-9.64.6-.8-.36-1.54-.82-2.24-1.34-.93-.68-.94-.69-.19-1.63,1.39-1.76,2.94-3.37,4.65-4.82,4.45-3.79,9.52-6.33,15.29-7.31,6.92-1.18,13.62-.41,19.89,2.87,6.41,3.35,9.96,8.78,10.99,15.9.21,1.43.27,2.86.27,4.31,0,17.52,0,35.03,0,52.55,0,1.54.15,1.36-1.32,1.34-1.67-.02-3.33-.18-4.94-.66-2.54-.75-4.16-2.38-4.79-4.98-.09-.37-.19-.73-.29-1.09,0-.03-.06-.04-.16-.1Zm-.28-35.91c-.16.02-.35.02-.53.06-5.81,1.57-11.59,3.26-17.22,5.41-3.48,1.33-6.81,2.94-9.76,5.26-4.2,3.31-6.42,7.45-5.63,12.95.66,4.59,3.02,7.77,7.45,9.28,3.49,1.2,7.08,1.23,10.68.66,5.57-.88,9.78-3.72,12.34-8.81,1.83-3.65,2.63-7.59,2.76-11.63.13-4.2.05-8.41.06-12.62,0-.19.01-.38-.14-.57Z"/>
    <path class="cls-3" d="m529.51,273.39c1.38-.7,2.72-1.42,4.08-2.06,4.1-1.92,8.34-3.43,12.85-4.01,5.01-.65,9.92-.22,14.6,1.79,5.18,2.22,8.36,6.23,10,11.55.82,2.66,1.21,5.39,1.21,8.18,0,18.12,0,36.24,0,54.36,0,1.52.14,1.33-1.34,1.33-1.25,0-2.5-.13-3.73-.38-3.84-.76-5.97-2.98-6.59-6.83-.23-1.43-.3-2.86-.3-4.3,0-13.87,0-27.75-.01-41.62,0-1.97-.22-3.92-.51-5.88-.72-4.83-4.77-7.62-9.14-8.09-2.63-.28-5.12.25-7.58,1.07-4.3,1.43-8.3,3.5-12.27,5.63-.46.25-.69.54-.63,1.07.03.26,0,.53,0,.8,0,19.07,0,38.13,0,57.2,0,1.53.14,1.34-1.32,1.34-3.19,0-6.37,0-9.56,0-1.05,0-1.06,0-1.06-1.03,0-4.97,0-9.93,0-14.9,0-20.05,0-40.1,0-60.16,0-1.45-.31-1.42,1.41-1.36,1.67.06,3.31.35,4.87,1.02,2.22.96,3.89,2.46,4.75,4.77.07.17.16.33.26.53Z"/>
    <path class="cls-3" d="m582.55,293.02c0-14.17,0-25.81,0-37.45,0-.87.05-1.74.22-2.6.46-2.21,1.72-3.84,3.63-4.99,2.28-1.38,4.8-1.78,7.4-1.9.52-.02.8.12.74.69-.03.26,0,.53,0,.8v20.36c0,.34,0,.68,0,1.02,0,1.11,0,1.12,1.12,1.12,4.85,0,9.71,0,14.56,0,.27,0,.53.02.8,0,.62-.06.76.23.75.81-.02,2.8,0,5.61-.01,8.42,0,1.12,0,1.12-1.1,1.12-4.85,0-9.71,0-14.56,0-1.81,0-1.55-.26-1.55,1.57,0,15.12,0,30.25,0,45.37,0,1.63.15,3.25.61,4.83.52,1.79,1.67,2.92,3.43,3.48,2.11.67,4.26.65,6.42.38,1.96-.24,3.9-.57,5.83-.98.86-.18.92-.13.93.72,0,2.54-.02,5.08.02,7.62.01.66-.22.94-.82,1.13-2.43.77-4.9,1.33-7.45,1.49-3.45.22-6.89.13-10.27-.74-5.43-1.39-8.67-4.85-9.87-10.29-.5-2.26-.69-4.56-.73-6.88-.21-12.54,0-25.09-.09-35.1Z"/>
    <path class="cls-3" d="m294.8,316.75c0-8.68-.02-17.36.01-26.04.01-2.96.29-5.9,1.06-8.77.97-3.63,2.67-6.84,5.49-9.38,2.21-1.99,4.83-3.25,7.66-4.09,5.56-1.64,11.19-1.93,16.84-.57,2.22.53,1.9.36.91,2.17-1.1,2.01-2.52,3.78-4.31,5.24-1.77,1.44-3.75,2.4-6.06,2.63-.67.07-1.34.24-2,.39-3.74.85-6,3.2-6.92,6.88-.54,2.15-.68,4.34-.68,6.54,0,17.13,0,34.27,0,51.4,0,1.59.2,1.38-1.39,1.38-3.19.01-6.37,0-9.56,0-1.04,0-1.05,0-1.05-1.06,0-8.91,0-17.82,0-26.72Z"/>
    <path class="cls-3" d="m619.52,307.22c0-11.94,0-23.87,0-35.81,0-.11,0-.23,0-.34.01-.98.01-.99,1-.99,3.34,0,6.67,0,10.01,0,.93,0,.93.01.94.93,0,.68,0,1.36,0,2.05,0,23.38,0,46.76,0,70.14,0,.11,0,.23,0,.34-.01.98-.01.99-1,.99-3.26,0-6.52,0-9.78,0-1.21,0-1.17.14-1.17-1.16,0-12.05,0-24.1,0-36.15Z"/>
    <path class="cls-3" d="m619.52,252.07c0-1.74.02-3.49-.01-5.23-.01-.6.2-.78.79-.77,3.49.02,6.97.02,10.46,0,.55,0,.73.19.72.72-.01,3.56-.02,7.12,0,10.68,0,.56-.2.71-.73.71-3.49-.02-6.97-.02-10.46,0-.58,0-.79-.17-.78-.77.03-1.78.01-3.56.01-5.34Z"/>
  </g>
  <rect class="cls-1" y="344.53" width="824.88" height="312.12"/>
</svg>